<?xml version="1.0" standalone="no"?> 
<!DOCTYPE svg PUBLIC "-//W3C//DTD SVG 1.1//EN" "http://www.w3.org/Graphics/SVG/1.1/DTD/svg11.dtd" >
<svg xmlns="http://www.w3.org/2000/svg">
<defs>
  <font id="one" horiz-adv-x="1138">
    <font-face font-family="one"
      units-per-em="1001" ascent="1001"
      descent="0" />
    <missing-glyph horiz-adv-x="0" />
    <glyph glyph-name="address"
      unicode="&#xE001;"
      horiz-adv-x="1001" d=" M500.5 959.30209375C333.67709375 959.30209375 198.10415625 822.5091875 198.10415625 653.5904375S500.5 41.7291875 500.5 41.7291875S802.89584375 484.6716875 802.89584375 653.5904375C802.89584375 822.5091874999999 667.3541875000001 959.30209375 500.5 959.30209375zM500.5 538.88209375C437.9375 538.88209375 387.0429062500001 590.18334375 387.0429062500001 653.5904375S437.9375 768.29878125 500.5 768.29878125S613.95709375 716.9975312500001 613.95709375 653.5904375S563.0625 538.88209375 500.5 538.88209375z" />
    <glyph glyph-name="arrow-down-light"
      unicode="&#xE002;"
      horiz-adv-x="1001" d=" M775.399625 688.1875L813.3125 647.7095625L500.5 312.8125L187.6875 647.7095625L225.4126875 688.1875L500.5 393.9560625000001z" />
    <glyph glyph-name="arrow-down"
      unicode="&#xE003;"
      horiz-adv-x="1001" d=" M1001 625.625L875.875 750.75L500.5 362.8625000000001L125.125 750.75L0 625.625L500.5 125.125z" />
    <glyph glyph-name="arrow-left-light"
      unicode="&#xE004;"
      horiz-adv-x="1001" d=" M610.7664062499999 801.51946875L572.0715 840.214375L214.6519375 482.70096875L572.0715 125.250125L610.7664062499999 163.94503125L291.9791875 482.7322499999999z" />
    <glyph glyph-name="arrow-right-normal"
      unicode="&#xE005;"
      horiz-adv-x="1001" d=" M583.92709375 834.17709375Q601.5384375 834.17709375 613.58171875 822.1338125L905.529625 530.18590625Q917.57290625 518.142625 917.57290625 500.53128125T905.529625 470.87665625L613.58171875 178.9287499999999Q601.5384375 166.8854687499999 583.92709375 166.8854687499999Q566.0029375 166.8854687499999 554.1160625000001 178.7723437499999T542.2291875000001 208.5833749999998Q542.2291875000001 226.1947187499999 554.2724687500001 238.2379999999999L775.1806562500002 458.8333749999998H125.125Q107.85775 458.8333749999998 95.62678125 471.0330624999999T83.42709375 500.5312812499999T95.62678125 530.0294999999999T125.125 542.2291874999999H775.18065625L554.2724687499999 762.8245624999998Q542.2291874999999 774.8678437499998 542.2291874999999 792.4791874999999Q542.2291874999999 810.4033437499999 554.1160624999999 822.2902187499999T583.9270937499998 834.1770937499998z" />
    <glyph glyph-name="arrow-right"
      unicode="&#xE006;"
      horiz-adv-x="531.78125" d=" M544.38759375 500.53128125L49.674625 0L0 49.1115625L446.2583125 500.53128125L0 951.951L49.6120625 1001.03128125z" />
    <glyph glyph-name="audio"
      unicode="&#xE007;"
      horiz-adv-x="1001" d=" M629.1910625 1001C593.43659375 1001 571.97765625 979.5410625 571.97765625 943.78659375V586.2731875C571.97765625 557.682125 593.43659375 529.05978125 629.1910625 529.05978125C657.7821250000001 529.05978125 679.2410625000001 550.51871875 679.2410625000001 586.2731875V943.78659375C679.2410625000001 979.5410625 657.7821250000001 1001 629.1910625 1001zM607.7634062500001 0H643.5178750000001V214.49553125H607.7634062500001V0zM643.48659375 500.5H607.732125C586.2731875000001 500.5 571.97765625 486.2044687499999 571.97765625 464.74553125V286.00446875C571.97765625 264.5455312500001 586.2731875000001 250.25 607.732125 250.25H643.48659375C664.94553125 250.25 679.2410625000001 264.5455312500001 679.2410625000001 286.00446875V464.74553125C679.2410625000001 486.2044687499999 664.94553125 500.5 643.48659375 500.5zM214.49553125 0H250.25V214.49553125H214.49553125V0zM250.25 500.5H214.49553125C193.03659375 500.5 178.7410625 486.2044687499999 178.7410625 464.74553125V286.00446875C178.7410625 264.5455312500001 193.03659375 250.25 214.49553125 250.25H250.25C271.7089375 250.25 286.00446875 264.5455312500001 286.00446875 286.00446875V464.74553125C286.00446875 486.2044687499999 271.7089375 500.5 250.25 500.5zM235.95446875 1001C107.26340625 1001 0 893.73659375 0 765.04553125C0 643.48659375 107.26340625 536.25446875 235.95446875 536.25446875C357.51340625 536.25446875 464.74553125 643.517875 464.74553125 765.0455312500001C464.74553125 893.73659375 357.4821250000001 1001 235.95446875 1001zM235.95446875 679.2410625C185.90446875 679.2410625 143.017875 722.12765625 143.017875 765.0455312500001C143.017875 815.09553125 185.90446875 857.982125 235.95446875 857.982125S321.7589375 815.09553125 321.7589375 772.17765625C321.7589375 722.12765625 278.87234375 679.2410625 235.95446875 679.2410625zM858.01340625 929.4910625H715.0268124999999V607.732125H858.0134062499999A143.42453125 143.42453125 0 0 1 1001 750.71871875V786.4731875A143.42453125 143.42453125 0 0 1 858.0134062500001 929.45978125z" />
    <glyph glyph-name="bag"
      unicode="&#xE008;"
      horiz-adv-x="1001" d=" M300.3 600.5999999999999V650.65H700.6999999999999V600.5999999999999H300.3zM300.3 300.3000000000001V600.6H350.35V300.3000000000001H300.3zM650.6499999999999 300.3000000000001V600.6H700.6999999999999V300.3000000000001H650.6499999999999zM300.3 250.25V300.3000000000001H700.6999999999999V250.25H300.3zM450.5125625 700.7V650.6500000000001H400.4000000000001V725.7249999999999L425.4250000000001 750.75H575.575L600.6625625 725.7249999999999V650.65H550.5500000000001V700.6687187499999L450.48128125 700.7zM400.4000000000001 600.5999999999999H450.45V550.55H400.4000000000001V600.5999999999999zM550.5500000000001 600.5999999999999H600.6000000000001V550.55H550.5500000000001V600.5999999999999z" />
    <glyph glyph-name="bag_v2"
      unicode="&#xE009;"
      horiz-adv-x="1001" d=" M406.781375 644.39375V666.41575C404.0911875 720.4384687500001 445.5075625 766.51575 501.53228125 769.4874687500001C555.4924375 766.51575 596.9088125000001 720.4384687500001 594.24990625 667.3541875V644.39375H694.44375V275.2749999999999A43.793749999999996 43.793749999999996 0 0 0 650.65 231.48125H350.35A43.793749999999996 43.793749999999996 0 0 0 306.5562500000001 275.2749999999999V644.39375H406.7813750000001zM444.28759375 644.39375H556.7124062500001V668.292625C558.3703125000001 701.701 532.78225 730.19821875 501.53228125 732.0125312499999C468.18646875 730.1669375 442.5984062500001 701.701 444.2875937500001 667.3541875V644.39375zM344.09375 606.85625V275.275C344.09375 271.8340625000001 346.9090625 269.0187500000001 350.35 269.0187500000001H650.6499999999999A6.25625 6.25625 0 0 1 656.9062499999999 275.275V606.85625H344.09375zM556.80625 575.575H594.34375L594.31246875 541.1030625000001C591.2469062499999 491.74125 548.89209375 454.1411875 501.5322812499999 456.86265625C452.1079062499999 454.1411875 409.7530937499999 491.74125 406.65625 542.26046875V575.575H444.1937499999999L444.16246875 543.417875C445.9454999999999 514.67040625 470.6576875 492.74225 501.5322812499999 494.3375937500001C530.3423124999999 492.7422500000001 555.0544999999998 514.67040625 556.8062499999999 542.26046875V575.575z" />
    <glyph glyph-name="bookmark"
      unicode="&#xE00A;"
      horiz-adv-x="1001" d=" M300.3 800.8H700.6999999999999V200.1999999999999L500.5 350.35L300.3 200.1999999999999z" />
    <glyph glyph-name="brand-2020"
      unicode="&#xE00B;"
      horiz-adv-x="2894.7837837837837" d=" M1069.9878378378378 499.1472972972973C1069.9878378378378 551.9027027027028 1045.639189189189 593.8364864864865 996.9418918918918 593.8364864864865C948.2445945945944 593.8364864864865 922.543243243243 551.9027027027028 922.543243243243 499.1472972972973S946.8918918918916 404.4581081081082 996.9418918918918 404.4581081081082C1046.9918918918918 405.8108108108109 1069.9878378378378 446.3918918918919 1069.9878378378378 499.1472972972973M868.4351351351349 499.1472972972973C868.4351351351349 578.9567567567567 918.485135135135 638.4756756756757 996.9418918918918 638.4756756756757S1125.4486486486485 578.9567567567567 1125.4486486486485 499.1472972972973S1075.3986486486483 361.1716216216218 996.9418918918918 361.1716216216218S868.4351351351349 419.3378378378379 868.4351351351349 499.1472972972974M1171.4405405405405 633.0648648648648H1226.9013513513512L1316.1797297297294 484.2675675675675C1324.2959459459455 469.3878378378378 1335.1175675675674 446.3918918918919 1335.1175675675674 446.3918918918919H1336.47027027027S1335.1175675675674 473.4459459459459 1335.1175675675674 492.3837837837838V633.0648648648648H1387.8729729729728V366.5824324324325H1335.1175675675674L1243.1337837837839 514.0270270270271C1235.0175675675678 527.5540540540541 1224.1959459459458 550.5500000000001 1224.1959459459458 550.5500000000001H1222.8432432432433S1224.1959459459458 522.1432432432432 1224.1959459459458 504.5581081081082V366.5824324324326H1171.4405405405405V633.0648648648648zM1447.3918918918919 633.0648648648648H1643.5337837837837V588.4256756756756H1501.5V528.9067567567567H1625.9486486486487V484.2675675675677H1501.5V412.5743243243245H1644.8864864864863V366.5824324324326H1447.3918918918919zM1753.1027027027026 507.2635135135135H1808.5635135135133C1836.97027027027 507.2635135135135 1851.8499999999997 523.495945945946 1851.8499999999997 546.4918918918919C1851.8499999999997 570.8405405405406 1835.6175675675672 585.7202702702702 1809.916216216216 585.7202702702702H1753.1027027027026V507.2635135135135zM1697.6418918918919 633.0648648648648H1815.3270270270268C1846.4391891891892 633.0648648648648 1869.4351351351347 623.5959459459459 1885.6675675675672 608.7162162162163C1900.5472972972968 593.8364864864865 1910.016216216216 572.1932432432433 1910.016216216216 547.8445945945946C1910.016216216216 497.7945945945946 1876.1986486486485 463.977027027027 1820.7378378378376 463.977027027027H1755.8081081081077V367.9351351351351H1700.347297297297V633.0648648648648zM1947.891891891892 633.0648648648648H2002V412.5743243243244H2126.4486486486485V366.5824324324325H1947.891891891892zM2156.2081081081083 453.1554054054054V633.0648648648648H2210.316216216216V451.8027027027027C2210.316216216216 424.7486486486487 2223.8432432432433 404.4581081081082 2260.366216216216 404.4581081081082C2294.1837837837834 404.4581081081082 2310.416216216216 424.7486486486487 2310.416216216216 451.8027027027027V633.0648648648648H2364.524324324324V451.8027027027027C2364.524324324324 394.9891891891891 2329.354054054054 361.1716216216217 2261.7189189189185 361.1716216216217C2191.3783783783783 362.5243243243243 2156.208108108108 394.9891891891891 2156.208108108108 453.1554054054053M2402.3999999999996 449.0972972972974H2455.1554054054054C2459.2135135135136 416.6324324324326 2476.7986486486484 404.4581081081083 2514.674324324324 404.4581081081083C2541.7283783783782 404.4581081081083 2566.0770270270273 413.9270270270272 2566.0770270270273 438.2756756756758C2566.0770270270273 463.9770270270271 2540.3756756756757 469.3878378378379 2499.7945945945944 478.8567567567569C2452.45 489.6783783783785 2407.810810810811 501.8527027027029 2407.810810810811 557.3135135135135C2407.810810810811 610.0689189189189 2451.097297297297 637.122972972973 2509.2635135135133 637.122972972973C2568.7824324324324 637.122972972973 2608.0108108108107 607.3635135135136 2612.068918918919 554.6081081081081H2560.666216216216C2557.9608108108105 581.6621621621622 2536.317567567567 595.1891891891892 2509.263513513513 595.1891891891892C2480.856756756756 595.1891891891892 2460.5662162162157 583.0148648648649 2460.5662162162157 564.077027027027C2460.5662162162157 542.4337837837838 2479.5040540540535 535.6702702702703 2518.7324324324322 527.5540540540541C2574.1932432432427 515.3797297297298 2618.832432432432 503.2054054054055 2618.832432432432 445.0391891891892C2618.832432432432 390.9310810810811 2575.5459459459457 361.1716216216217 2514.674324324324 361.1716216216217C2444.333783783784 361.1716216216217 2403.7527027027027 393.6364864864865 2402.3999999999996 449.0972972972973M270.5405405405405 727.754054054054V273.245945945946H725.0486486486486V532.9648648648649H674.9986486486486V323.295945945946H320.5905405405406V676.3513513513514H530.2594594594594V727.754054054054zM674.9986486486486 811.6216216216217V727.754054054054H589.7783783783784V676.3513513513514H674.9986486486486V592.4837837837838H725.0486486486486V676.3513513513514H808.9162162162162V727.754054054054H725.0486486486486V811.6216216216217z M530.2594594594594 390.9310810810811V612.7743243243244H485.6202702702703C485.6202702702703 597.8945945945945 480.2094594594595 585.7202702702702 472.0932432432433 578.9567567567567S451.8027027027027 569.4878378378379 436.922972972973 569.4878378378379H431.5121621621622V532.9648648648649H478.8567567567568V390.9310810810811H530.2594594594594z" />
    <glyph glyph-name="brand"
      unicode="&#xE00C;"
      horiz-adv-x="1001" d=" M748.8105625 658.4703125000001V752.2515H654.9668125V814.7514375000001H748.8105625V908.532625H811.3417812499999V814.7514375H905.06040625V752.2515H811.3417812499999V658.4703125H748.8105625zM404.5916875 345.9080625000001V408.4392812499999H467.0290625V595.34475H404.5916875V658.43903125H529.6228437499999V408.4079999999999H592.7796874999999V345.8767812499999H404.6229687499999zM186.1234375 189.6269375000001V814.78271875H592.43559375V752.22021875H248.6859375V252.1581562500001H748.7167187499999V596.00165625H811.2792187499999V189.6582187500001H186.1234375z" />
    <glyph glyph-name="bundles"
      unicode="&#xE00D;"
      horiz-adv-x="1001" d=" M300.3 557.7134062499999V607.76340625V636.35446875C207.36340625 600.5999999999999 135.85446875 507.66340625 135.85446875 393.267875C135.85446875 307.4634062500001 178.7410625 235.95446875 235.95446875 185.90446875V271.7089375C214.49553125 307.4634062500001 200.2 343.2178750000001 200.2 393.267875C200.2 479.07234375 235.95446875 536.2544687499999 300.3000000000001 557.7134062499999zM71.5089375 393.23659375C71.5089375 571.9776562500001 200.2 714.9955312500001 364.64553125 714.9955312500001H428.9910625V786.50446875H364.64553125C164.44553125 786.50446875 0 607.76340625 0 393.267875C0 228.82234375 100.1 85.80446875 235.95446875 28.62234375V107.26340625C135.85446875 164.4768124999999 71.5089375 271.7089375000001 71.5089375 393.267875zM800.8000000000001 858.01340625V786.50446875H865.14553125V858.01340625H800.8000000000001zM936.65446875 1001H564.8455312499999C529.0910625 1001 500.5 972.4089375 500.5 929.4910625V714.99553125H564.8455312499999V893.73659375C564.8455312499999 915.19553125 579.1410625 929.4910625 600.6 929.4910625H900.8999999999997C922.3589375 929.4910625 936.65446875 915.19553125 936.65446875 893.73659375V107.232125C936.65446875 85.7731875000001 922.3589375 71.47765625 900.8999999999997 71.47765625H700.6999999999999V-0.0312812499999H936.65446875C979.5410624999998 -0.0312812499999 1000.9999999999998 28.5597812500001 1000.9999999999998 71.4776562500001V929.4910625C1001 972.37765625 972.4089375 1001 936.65446875 1001zM600.6 464.74553125H564.8455312499999V607.732125C564.8455312499999 629.1910625 550.55 643.48659375 536.2544687499999 643.48659375C514.79553125 643.48659375 500.4999999999999 629.1910625 500.4999999999999 607.732125V464.74553125H436.1544687499999V607.732125C436.1544687499999 629.1910625 421.8589374999999 643.48659375 400.3999999999999 643.48659375S364.6455312499998 629.1910625 364.6455312499998 607.732125V464.74553125H336.0544687499999C314.5955312499999 464.74553125 300.2999999999999 450.4499999999999 300.2999999999999 428.9910625V35.75446875C300.2999999999999 14.2955312500001 314.5955312499999 0 336.0544687499999 0H600.6C622.0589375 0 636.35446875 14.2955312500001 636.35446875 35.75446875V428.9910625C636.35446875 450.4499999999999 622.0589375 464.74553125 600.6 464.74553125z" />
    <glyph glyph-name="calendar"
      unicode="&#xE00E;"
      horiz-adv-x="1112.439453125" d=" M0 556.1112197265625H1112.222439453125V0H0V556.1112197265625zM0 889.777560546875V667.332681640625H1112.222439453125V889.777560546875H0zM333.6663408203126 778.55512109375H222.4439013671875V889.777560546875H333.6663408203126V778.55512109375zM889.777560546875 778.55512109375H778.55512109375V889.777560546875H889.777560546875V778.55512109375zM333.6663408203126 1001V889.777560546875H222.4439013671875V1001H333.6663408203126zM889.777560546875 1001V889.777560546875H778.55512109375V1001H889.777560546875z" />
    <glyph glyph-name="call"
      unicode="&#xE00F;"
      horiz-adv-x="1001" d=" M365.8655 530.78025A379.09746875 379.09746875 0 0 1 530.78025 365.8654999999999L585.8352500000001 420.9205A24.86859375 24.86859375 0 0 0 611.36075 426.9265000000001A285.4726875 285.4726875 0 0 1 700.6999999999999 412.66225C714.46375 412.66225 725.725 401.4010000000001 725.725 387.63725V300.3000000000001C725.725 286.53625 714.46375 275.275 700.6999999999999 275.275C465.71525 275.275 275.275 465.7152500000001 275.275 700.7C275.275 714.46375 286.53625 725.725 300.3 725.725H387.8875C401.65125 725.725 412.9125 714.4637500000001 412.9125 700.7C412.9125 669.41875 417.9175 639.3887500000001 427.17675 611.36075A25.118843750000007 25.118843750000007 0 0 0 420.9205 585.83525L365.8655 530.78025z" />
    <glyph glyph-name="call_v2"
      unicode="&#xE010;"
      horiz-adv-x="1001" d=" M402.12046875 420.01334375A656.5934374999999 656.5934374999999 0 0 1 497.74725 338.36928125L601.06921875 414.1324687500001C614.33246875 423.64196875 632.0376562499999 424.1424687500001 645.9578124999999 415.38371875L746.46446875 350.88178125A45.670625 45.670625 0 0 0 753.1899374999999 275.99446875L735.609875 261.98046875A142.89275 142.89275 0 0 0 586.05421875 244.77578125A694.91296875 694.91296875 0 0 0 375.12475 393.9873437499999A641.5784375000001 641.5784375000001 0 0 0 240.20871875 605.1983437499999A121.93431250000002 121.93431250000002 0 0 0 277.3395625 745.6824374999999L295.3575625000001 759.10209375C306.8377812500001 767.86084375 321.5086875 771.30178125 335.67909375 768.5490312499999S362.14303125 757.0688124999999 369.61925 744.4311874999999L427.552125 643.2050624999999A36.0985625 36.0985625 0 0 0 421.20203125 599.0984999999998L331.29971875 509.4464374999999A603.0399375 603.0399375 0 0 1 402.18303125 420.0446249999999z" />
    <glyph glyph-name="cart-empty"
      unicode="&#xE011;"
      horiz-adv-x="1001" d=" M350.35 275.275C308.65209375 275.275 275.275 241.0845937500001 275.275 200.2000000000001S308.65209375 125.125 350.35 125.125S425.425 159.31540625 425.425 200.1999999999999S391.23459375 275.2749999999999 350.35 275.2749999999999zM125.125 875.875V799.95540625H200.2L335.3350000000001 513.0125L284.44040625 420.4200000000001A77.13956250000001 77.13956250000001 0 0 1 275.2750000000001 383.7270937500001C275.2750000000001 342.0291875000002 308.65209375 307.8075000000001 350.35 307.8075000000001H800.8000000000001V383.7270937500001H366.20959375A9.22796875 9.22796875 0 0 0 357.0441875 392.8925000000001L357.88878125 397.0529062500001L391.2658750000001 458.7708125H670.7012812500001C699.073375 458.7708125 723.2537812500001 474.6304062500001 736.6108750000001 497.96621875L870.90128125 743.21121875C874.248375 748.21621875 875.0616875000001 754.879125 875.0616875000001 761.5733125C875.0616875000001 782.43790625 858.38878125 799.1108125000001 837.5241875 799.1108125000001H282.8137812500001L247.77878125 875.84371875H125.15628125zM725.725 275.275C684.0270937500001 275.275 650.65 241.0845937500001 650.65 200.2000000000001S684.0270937500001 125.1250000000001 725.725 125.1250000000001S800.8 159.3154062500001 800.8 200.2000000000001S766.6095937499999 275.275 725.725 275.275z" />
    <glyph glyph-name="cart-exchange"
      unicode="&#xE012;"
      horiz-adv-x="1001" d=" M613.86325 581.83125C600.5999999999999 581.83125 590.715125 574.198625 584.4588749999999 559.0585000000001S574.949375 524.398875 574.949375 500.5C574.949375 476.7262500000001 578.0775 457.2067500000001 584.4588749999999 442.1917500000001S600.5999999999999 419.544125 613.86325 419.544125C627.0013749999999 419.544125 636.636 427.0516250000001 642.89225 442.1917500000001S652.40175 476.7262500000001 652.40175 500.5C652.40175 524.2737500000001 649.2736249999999 543.7932500000001 642.89225 559.0585000000001C636.636 574.198625 626.87625 581.83125 613.86325 581.83125z M500.5 900.9C279.404125 900.9 100.1 721.595875 100.1 500.5S279.404125 100.1 500.5 100.1S900.9 279.404125 900.9 500.5S721.595875 900.9 500.5 900.9zM463.71325 405.530125C454.70425 394.018625 442.9425000000001 385.385 428.3028750000001 379.62925C413.66325 373.748375 398.1477500000001 370.8705 381.506125 370.8705C359.6092500000001 370.8705 340.7153750000001 374.62425 324.9496250000001 382.1317499999999C309.183875 389.63925 296.671375 398.3979999999999 287.287 408.4079999999999L315.315 447.321875C323.197875 438.68825 332.707375 431.8063749999999 343.4681250000001 426.8013749999999S364.989625 419.293875 375.5001250000001 419.293875C386.8865 419.293875 396.64625 422.046625 404.529125 427.552125C412.412 433.0576249999998 416.416 441.0656249999999 416.416 451.5761249999999S412.6622500000001 469.8443749999999 405.029625 475.0996249999999C397.3970000000001 480.2297499999999 387.762375 482.8573749999999 376.1257500000001 482.8573749999999H345.59525V528.4028749999999H376.3760000000001C387.1367500000001 528.4028749999999 395.6452500000001 530.7802499999998 402.1517500000001 535.4098749999999C408.5331250000001 540.0394999999999 411.7863750000002 546.7962499999999 411.7863750000002 555.6801249999999C411.7863750000002 564.8142499999999 408.1577500000002 571.5709999999999 400.7753750000001 576.200625C393.3930000000001 580.705125 384.0086250000001 583.0824999999999 372.6222500000001 583.0824999999999C353.7283750000001 583.0824999999999 335.8355000000001 575.9503749999999 319.0687500000001 561.6861249999998L296.6713750000001 601.2256249999998C303.9286250000001 607.7321249999998 314.8145000000001 614.2386249999998 329.2038750000001 620.6199999999999C343.7183750000001 627.0013749999998 361.1107500000001 630.2546249999998 381.3810000000002 630.2546249999998C397.5221250000002 630.2546249999998 412.2868750000001 627.7521249999999 425.9255000000002 622.7471249999999C439.4390000000002 617.7421249999999 450.3248750000002 610.2346249999998 458.4580000000001 600.3497499999999C466.5911250000001 590.4648749999999 470.7202500000001 578.4528749999998 470.7202500000001 564.4388749999998C470.7202500000001 551.3007499999999 467.7172500000001 540.6651249999999 461.8363750000001 532.1566249999998C455.8303750000002 523.7732499999998 449.4490000000001 517.6421249999999 442.5671250000002 513.7632499999999S430.8053750000002 507.8823749999999 428.0526250000002 507.6321249999999C438.8133750000002 504.6291249999998 449.6992500000001 498.8733749999998 460.5851250000002 490.4899999999999C471.5961250000002 482.1066249999999 477.1016250000002 467.4669999999999 477.1016250000002 446.6962499999999C477.2267500000002 430.6802499999999 472.7222500000001 417.041625 463.7132500000002 405.5301249999999zM702.076375 432.306875C694.318625 412.787375 682.93225 397.64725 667.91725 386.8865C652.90225 376.12575 634.759125 370.745375 613.738125 370.745375C592.717125 370.745375 574.6991250000001 376.12575 559.5590000000001 386.8865C544.544 397.64725 533.0325 412.787375 525.27475 432.306875C517.391875 451.826375 513.513 474.4739999999999 513.513 500.5C513.513 526.400875 517.391875 549.173625 525.0245000000001 568.693125C532.7822500000001 588.2126250000001 544.1686250000001 603.35275 559.183625 614.1135C574.1986250000001 624.8742500000001 592.34175 630.254625 613.36275 630.254625C634.38375 630.254625 652.40175 624.8742500000001 667.541875 614.1135C682.556875 603.35275 694.068375 588.2126250000001 701.826125 568.693125C709.7090000000001 549.173625 713.5878749999999 526.5260000000001 713.5878749999999 500.5C713.713 474.5991250000001 709.834125 451.826375 702.076375 432.306875z" />
    <glyph glyph-name="cart-gift"
      unicode="&#xE013;"
      horiz-adv-x="1001" d=" M860.8599999999999 110.11V95.095H530.53V440.4400000000001H860.8599999999999V110.1100000000002zM860.8599999999999 500.5H530.53V680.6800000000001H470.47V500.5H140.14V680.6800000000001H234.609375C222.347125 702.702 215.215 728.2275 215.215 755.755C215.215 838.7128749999999 277.277 905.905 361.986625 905.905C415.540125 905.905 468.593125 879.003125 500.5 838.462625C532.4068749999999 879.12825 585.459875 905.905 639.013375 905.905C723.723 905.905 785.785 838.7128749999999 785.785 755.755C785.785 750.624875 785.159375 745.745 784.784 740.74H724.348625C724.97425 745.619875 725.7249999999999 750.49975 725.7249999999999 755.755C725.7249999999999 809.809 690.94025 845.845 635.6349999999999 845.845S530.53 809.809 530.53 755.755V680.6800000000001H860.8599999999999V500.5zM470.47 710.71V755.7550000000001C470.47 809.8090000000001 420.67025 845.845 365.365 845.845S275.275 809.809 275.275 755.755C275.275 722.4717499999999 288.53825 696.070375 311.56125 680.6800000000001H470.4699999999999V710.71zM470.47 95.095H140.14V440.4400000000001H470.4699999999999V95.095z" />
    <glyph glyph-name="cart-reason"
      unicode="&#xE014;"
      horiz-adv-x="1001" d=" M695.6949999999999 838.3375V898.3975H635.635V838.3375H365.365V898.3975H305.305V838.3375H110.11V102.6025000000001H890.89V838.3375H695.6949999999999zM365.365 718.2175H305.305V778.2775H365.365V718.2175zM593.593 504.128625L491.2407499999999 298.7985H425.67525L531.531 502.7522499999999H409.2838749999999V550.4248749999999H593.593V504.1286249999999zM695.6949999999999 718.2175H635.635V778.2775H695.6949999999999V718.2175z" />
    <glyph glyph-name="cart-security"
      unicode="&#xE015;"
      horiz-adv-x="1001" d=" M500.875375 917.291375L140.515375 708.833125V291.9166250000001L500.875375 83.4583750000001L861.235375 291.9166250000001V708.833125L500.875375 917.291375zM422.17175 376.3760000000001H360.10975V563.187625C358.983625 562.3117500000001 356.60625 560.81025 353.10275 558.80825C349.59925 556.8062500000001 346.346 555.179625 343.343 553.678125C339.8395 552.0515 335.710375 550.424875 331.08075 548.79825S322.447125 545.79525 319.193875 544.544L304.8045 587.3367499999999C309.4341250000001 588.462875 315.690375 590.5899999999999 323.3230000000001 593.5930000000001S337.712375 599.724125 343.343 603.1025C350.0997500000001 607.35675 356.1057500000001 611.611 361.3610000000001 616.1155S370.1197500000001 624.624 371.7463750000001 628.37775H422.17175V376.376zM682.4317500000001 411.9115000000001A90.03994999999999 90.03994999999999 0 0 0 645.1445000000001 382.5071250000001C629.8792500000001 375.8755 613.613 372.4971250000001 596.596 372.4971250000001C574.448875 372.4971250000001 555.429875 375.8755000000001 539.78925 382.6322500000001S511.26075 397.6472500000001 501.2507500000001 407.1567500000001L529.2787500000001 446.6962500000001C537.0365 439.1887500000001 546.2957500000001 433.0576250000001 557.3067500000001 428.1777500000001C568.3177500000002 423.2978750000001 579.2036250000001 420.7953750000001 590.2146250000002 420.7953750000001C603.2276250000001 420.7953750000001 614.1135000000002 424.048625 622.7471250000002 430.4300000000001S635.7601250000001 446.4460000000002 635.7601250000001 459.3338750000001S631.3807500000001 481.8563750000001 622.6220000000002 488.2377500000001S603.1025000000002 497.8723750000002 590.2146250000002 497.8723750000002C583.2076250000001 497.8723750000002 576.7011250000002 496.8713750000002 570.8202500000002 494.8693750000002C564.8142500000002 492.8673750000002 560.1846250000002 490.7402500000002 556.6811250000002 488.6131250000002C553.1776250000001 486.3608750000002 550.9253750000001 484.9845000000001 550.0495000000002 484.2337500000001L516.0155000000002 498.6231250000001L537.4118750000002 627.8772500000001H687.6870000000001V580.2046250000001H583.3327500000001L574.9493750000001 535.0345000000001C579.5790000000002 536.6611250000001 584.3337500000002 538.0375000000001 589.0885000000002 539.0385000000001C593.8432500000002 540.0395000000001 600.9753750000002 540.6651250000001 610.2346250000002 540.6651250000001C624.9993750000002 540.6651250000001 638.8882500000002 537.7872500000001 652.1515000000002 532.0315000000002S676.0503750000001 517.2667500000002 684.4337500000001 505.0045000000002C692.6920000000001 492.7422500000002 696.8211250000002 477.3518750000002 696.8211250000002 458.9585000000002S692.0663750000002 424.9245000000002 682.4317500000002 411.9115000000003z" />
    <glyph glyph-name="cases-protection"
      unicode="&#xE016;"
      horiz-adv-x="1001" d=" M135.85446875 71.5089375V929.52234375H71.5089375C28.62234375 929.52234375 0 900.93128125 0 858.01340625V71.5089375C0 28.62234375 28.5910625 0 71.5089375 0H207.36340625C171.6089375 0 135.85446875 28.5910625 135.85446875 71.5089375zM929.4910625 929.4910625H865.14553125V71.47765625C865.14553125 28.5910625 829.3910625 -0.0312812499999 793.63659375 -0.0312812499999H929.4910625C972.3776562499997 -0.0312812499999 1001 28.5597812500001 1001 71.4776562500001V857.982125C1001 900.86871875 972.4089375 929.4910625 929.4910625 929.4910625zM793.63659375 929.4910625C793.63659375 972.37765625 757.8821250000001 1001 722.12765625 1001H278.8410625C243.08659375 1001 207.332125 972.4089375 207.332125 929.4910625V71.47765625C207.332125 28.5910625 235.9231875 -0.0312812499999 278.8410625 -0.0312812499999H722.12765625C765.01425 -0.0312812499999 793.6365937500001 28.5597812500001 793.6365937500001 71.4776562500001V929.4910625zM486.20446875 879.4410625C486.20446875 857.982125 471.9089375 843.68659375 450.4499999999999 843.68659375H328.8910625C307.432125 843.68659375 286.00446875 857.982125 286.00446875 879.4410625V893.73659375C286.00446875 915.19553125 307.46340625 929.4910625 328.8910625 929.4910625H450.45C471.9089375 929.4910625 486.20446875 915.19553125 486.20446875 893.73659375V879.4410625z" />
    <glyph glyph-name="cat-phone"
      unicode="&#xE017;"
      horiz-adv-x="562.1240624999999" d=" M500.1871875 1001H62.2496875A64.439375 64.439375 0 0 1 -0.3128125 935.6221875V65.3778125A64.439375 64.439375 0 0 1 62.2496875 0H500.1871875A64.439375 64.439375 0 0 1 562.7496875 65.3778125V935.6221875A64.439375 64.439375 0 0 1 500.1871875000001 1001zM515.2021874999999 127.9403125A38.4759375 38.4759375 0 0 0 476.100625 90.0899999999999H87.2746875A38.4759375 38.4759375 0 0 0 48.173125 127.9403125V917.791875A38.78875 38.78875 0 0 0 87.2746875 955.6421875H209.584375A55.367812500000014 55.367812500000014 0 0 0 233.6709375 946.2578125A157.9703125 157.9703125 0 0 0 251.5012500000001 929.9915625A42.229687500000004 42.229687500000004 0 0 1 281.2184375 913.7253125A42.855312500000004 42.855312500000004 0 0 1 312.4996875 930.93A93.84375000000001 93.84375000000001 0 0 0 330.0171875000001 946.2578125A55.367812500000014 55.367812500000014 0 0 0 354.10375 955.6421875H475.1621875A38.78875 38.78875 0 0 0 514.2637500000001 917.791875z" />
    <glyph glyph-name="cellphone"
      unicode="&#xE018;"
      horiz-adv-x="1001" d=" M777.24521875 665.38346875V959.80259375C777.24521875 989.23825 747.8095625000001 995.119125 736.01653125 995.119125C718.342625 995.119125 582.92609375 1001 512.26175 1001S306.180875 995.119125 288.50696875 995.119125C270.8330625000001 995.119125 241.39740625 995.119125 241.39740625 959.80259375V683.0573750000001S235.51653125 677.1765 235.51653125 671.295625V547.64084375C235.51653125 541.7599687500001 241.39740625 535.87909375 247.2782812500001 535.87909375V23.61734375C247.2782812500001 -5.8183125 259.0400312500001 -11.6991874999999 288.50696875 -11.6991874999999C317.942625 -17.5800624999999 441.59740625 -23.4609374999998 512.26175 -23.4609374999998S706.580875 -17.5800624999997 736.01653125 -11.6991874999999C765.4521874999999 -5.8183124999998 777.24521875 -5.8183124999998 777.24521875 23.6173437500001V588.9008125A12.637625000000002 12.637625000000002 0 0 1 789.00696875 600.6625624999999V659.533875C783.1260937500001 659.533875 783.1260937500001 665.41475 777.24521875 665.41475zM765.48346875 29.4356562500001C765.48346875 1e-13 759.60259375 1e-13 730.1669375 -5.8808749999998S577.0765 -17.6426249999997 506.41215625 -17.6426249999997S312.09303125 -11.7617499999997 282.6573750000001 -5.8808749999998C264.98346875 0 253.22171875 0 253.22171875 29.43565625V959.7713125C253.22171875 983.32609375 276.7765 983.32609375 288.53825 983.32609375C306.21215625 983.32609375 435.7478125 989.20696875 506.41215625 989.20696875S712.4930312500001 983.32609375 730.1669375 983.32609375C747.84084375 983.32609375 765.48346875 983.32609375 765.48346875 959.7713125C771.36434375 930.33565625 765.48346875 35.3165312499999 765.48346875 29.43565625z M724.25478125 977.44521875C712.49303125 977.44521875 582.92609375 983.32609375 512.29303125 983.32609375C435.7478125 983.32609375 312.09303125 977.44521875 294.419125 977.44521875C282.657375 977.44521875 259.10259375 977.44521875 259.10259375 948.0095625V47.1095625C259.10259375 17.6739062500001 270.86434375 11.79303125 294.419125 11.79303125C323.85478125 5.91215625 435.7478125 0.0312812499999 506.3808749999999 0.0312812499999S683.02609375 5.9121562499998 718.342625 11.79303125C747.77828125 17.67390625 753.65915625 17.67390625 753.65915625 47.1095625V948.0095625C759.54003125 971.56434375 741.89740625 977.44521875 724.2235000000001 977.44521875zM459.2713125 948.0095625H565.2521875C571.1330624999999 948.0095625 571.1330624999999 948.0095625 571.1330624999999 942.1286875C571.1330624999999 942.1286875 571.1330624999999 936.2478125 565.2521875 936.2478125H459.2713125C453.3904375 936.2478125 453.3904375 942.1286875 459.2713125 948.0095625C453.3904375 948.0095625 453.3904375 948.0095625 459.2713125 948.0095625zM353.2904375 953.8904375C359.1713125 953.8904375 365.0521875 948.0095625 365.0521875 942.1286875S359.1713125 930.3669375 353.2904375 930.3669375S347.4095625 936.2478125 347.4095625 942.1286875S347.4095625 953.8904375 353.2904375 953.8904375zM365.08346875 41.2286875000001H347.4095625H365.08346875C365.08346875 47.1095625 365.08346875 47.1095625 365.08346875 41.2286875000001zM365.08346875 52.9904375000001H347.4095625H365.08346875C365.08346875 58.8713125000001 365.08346875 52.9904375000001 365.08346875 52.9904375000001zM365.08346875 58.8713125000001H341.5286875H365.08346875C365.08346875 64.7521875 365.08346875 64.7521875 365.08346875 58.8713125000001zM518.17390625 52.9904375000001L506.4121562499999 64.7521875000001L500.5312812499999 58.8713125000002V52.9904375000002H506.4121562499999V58.8713125000002L518.17390625 52.9904375000002L512.29303125 47.1095625000003H500.5312812499999V52.9904375000002H494.6504062499999C488.7695312499999 52.9904375000002 494.6504062499999 52.9904375000002 494.6504062499999 58.8713125000002L506.4121562499999 70.6330625000002V58.8713125000002L518.17390625 52.9904375000002C524.0547812499999 58.8713125000002 524.0547812499999 52.9904375000002 518.17390625 52.9904375000002zM671.2643437499999 47.1095625000002H659.5025937499998V41.2286875000002L647.7408437499998 52.9904375000002L653.6217187499998 58.8713125000002H659.5025937499997V52.9904375000002H665.3834687499997C665.3834687499997 58.8713125000002 671.2643437499996 52.9904375000002 671.2643437499996 47.1095625000003C671.2643437499996 52.9904375000002 671.2643437499996 47.1095625000003 671.2643437499996 47.1095625000003zM736.0165312499998 100.1000000000001H282.62609375V900.9H736.01653125V100.1z" />
    <glyph glyph-name="contact"
      unicode="&#xE019;"
      horiz-adv-x="969.71875" d=" M29.18540625 684.9968125H159.12771875C174.7370625 684.9968125 187.43725 698.16621875 187.43725 714.3386250000001S174.7370625 743.6804375 159.12771875 743.6804375H29.18540625C13.5760625 743.6804375 0.875875 730.5110312500001 0.875875 714.3386250000001S13.5760625 684.9968125 29.18540625 684.9968125zM29.18540625 474.19246875H159.12771875C174.7370625 474.19246875 187.43725 487.3618749999999 187.43725 503.53428125C187.43725 511.3858749999999 184.4968125 518.73696875 179.14771875 524.2737500000001S166.69778125 532.87609375 159.12771875 532.87609375H29.18540625C13.5760625 532.87609375 0.875875 519.7066875 0.875875 503.53428125S13.5760625 474.19246875 29.18540625 474.19246875zM187.43725 293.4806875C187.43725 301.33228125 184.4968125 308.683375 179.14771875 314.22015625S166.69778125 322.8224999999999 159.12771875 322.8224999999999H29.18540625C13.5760625 322.8224999999999 0.875875 309.65309375 0.875875 293.4806875S13.5760625 264.138875 29.18540625 264.138875H159.12771875C174.7370625 264.138875 187.43725 277.30828125 187.43725 293.4806875zM278.12159375 263.7009375L274.30528125 254.4416875000001H337.36828125L339.2451562500001 258.00775C368.8059375000001 313.71965625 438.28159375 354.4791250000001 508.1951875000001 357.1380312500001H522.647125C592.56071875 354.4791250000001 662.06765625 313.7196562500001 691.6284375 258.00775L693.5053125 254.4416875000001H756.5683125L752.752 263.7009375C741.27178125 291.5725312499999 721.2205 318.84978125 694.78784375 342.5296875A308.74593749999997 308.74593749999997 0 0 1 623.4353125 390.0459062499999A202.20200000000003 202.20200000000003 0 0 1 686.2480625 454.7980937499999A197.00931250000002 197.00931250000002 0 0 1 714.5888749999999 556.71240625C714.5888749999999 666.7598437499998 625.03065625 756.3180624999999 514.9832187499999 756.3180624999999S315.3775624999999 666.791125 315.3775624999999 556.71240625C315.3775624999999 520.6451249999999 325.2311562499999 485.3285937499999 343.8434999999999 454.61040625A202.63993750000003 202.63993750000003 0 0 1 406.9377812499999 389.79565625A308.74593749999997 308.74593749999997 0 0 1 335.8667812499999 342.342C309.5279687499999 318.693375 289.5392499999999 291.4786875 278.0903124999999 263.7009375zM515.0145 698.29134375C593.06121875 698.29134375 656.5621562499999 634.79040625 656.5621562499999 556.7436875000001S593.0612187499999 415.1960312500001 515.0145 415.1960312500001C436.9677812499999 415.1960312500001 373.46684375 478.69696875 373.46684375 556.7436875000001S436.9677812499999 698.29134375 515.0145 698.29134375z M852.226375 1000.71846875H177.77134375A106.88803124999998 106.88803124999998 0 0 1 71.0084375 893.9555625V814.06325H128.28440625V882.03740625C128.28440625 922.4840625 149.68078125 943.8804375 190.1274375 943.8804375H840.87128125C881.3179375 943.8804375 902.7143125 922.4840625 902.7143125 882.03740625V125.0624374999999C902.7143125 84.6157812499999 881.3179375 63.2194062499999 840.87128125 63.2194062499999H190.1274375C149.68078125 63.2194062499999 128.28440625 84.6157812499999 128.28440625 125.0624374999999V193.03659375H71.0084375V114.3016875A106.88803124999998 106.88803124999998 0 0 1 177.77134375 7.5387812499999H852.226375A106.88803124999998 106.88803124999998 0 0 1 958.98928125 114.3016875V893.9555625A106.88803124999998 106.88803124999998 0 0 1 852.226375 1000.71846875z" />
    <glyph glyph-name="dash"
      unicode="&#xE01A;"
      horiz-adv-x="1001" d=" M670.6700000000001 870.87L585.585 575.575L725.7250000000001 465.4649999999999L335.3350000000001 130.1299999999999L430.4300000000001 425.4249999999999L275.2750000000001 535.5349999999999z" />
    <glyph glyph-name="earphones"
      unicode="&#xE01B;"
      horiz-adv-x="1001" d=" M413.81965625 975.1616875H432.83865625V797.39034375H413.81965625V975.1616875zM210.21 1000.8123125H401.2133125000001V771.771H210.21V1000.8123125zM443.84965625 771.5833125C486.486 771.5833125 553.14634375 781.18665625 596.596 811.02896875V961.36665625C553.14634375 991.20896875 486.486 1000.8123125 443.84965625 1000.8123125z M280.2800000000001 845.0316875H331.1433125000001V656.8436875H280.2800000000001V845.0316875z M291.4786875 938.34365625H320.10103125V0.40665625H291.4786875000001V938.34365625zM607.0126562500001 642.04765625H626.0316562500001V464.2763125H607.0126562500001V642.0476562499999zM403.403 667.6669999999999H594.4063125000001V438.6256874999999H403.4030000000001V667.6669999999999zM637.23034375 438.6256874999999C679.8666874999999 438.6256874999999 746.5270312499999 448.22903125 789.9766874999999 478.07134375V628.40903125C746.3393437499999 658.2513437499999 679.679 667.8546875 637.23034375 667.8546875z M473.473 511.91765625H524.3363125V323.7296562500001H473.473V511.91765625z M484.6716875 605.19834375H513.29403125V0.1876875H484.6716875V605.19834375z" />
    <glyph glyph-name="email"
      unicode="&#xE01C;"
      horiz-adv-x="1376.375" d=" M679.5851562500001 531.78125H696.78984375L1376.375 983.607625V1001H0V983.607625L679.5851562500001 531.78125z M718.1236562500001 475.1621875000001C709.583875 466.5285625 692.47303125 466.5285625 683.93325 466.5285625S666.82240625 466.5285625 658.282625 475.1621875000001L0.03128125 907.15625V69.1315625C0.03128125 34.56578125 25.68190625 0 68.41209375 0H1307.9941875C1342.18459375 0 1376.375 25.93215625 1376.375 69.1315625V907.15625L718.1236562500001 475.1621875000001z" />
    <glyph glyph-name="face-smile"
      unicode="&#xE01D;"
      horiz-adv-x="1001" d=" M570.5699999999999 397.0636591796876C528.8613408203124 355.355 462.1286591796875 355.355 420.4199999999999 397.0636591796876L380.38 357.0236591796875C443.7763408203125 293.6273183593751 548.8813408203124 293.6273183593751 612.2786591796875 357.0236591796875L570.5699999999999 397.0636591796876zM392.1916044921875 573.9063408203125C392.1916044921875 545.3426494140625 369.03663671875 522.187681640625 340.4729453125 522.187681640625S288.7542861328125 545.3426494140625 288.7542861328125 573.9063408203125C288.7542861328125 602.4700322265625 311.90925390625 625.625 340.4729453125 625.625S392.1916044921875 602.4700322265625 392.1916044921875 573.9063408203125zM702.5016044921875 573.9063408203125C702.5016044921875 545.3426494140625 679.34663671875 522.187681640625 650.7829453125 522.187681640625S599.0642861328124 545.3426494140625 599.0642861328124 573.9063408203125C599.0642861328124 602.4700322265625 622.21925390625 625.625 650.7829453125 625.625S702.5016044921875 602.4700322265625 702.5016044921875 573.9063408203125z M500.5 0C223.5563408203125 0 0 223.5563408203125 0 500.5S223.5563408203125 1001 500.5 1001S1001 777.4436591796875 1001 500.5S777.4436591796875 0 500.5 0zM500.5 38.3713408203125C755.755 38.3713408203125 962.6286591796876 245.2450000000001 962.6286591796876 500.5000000000001S755.755 962.6286591796874 500.5 962.6286591796874S38.3713408203125 755.755 38.3713408203125 500.5S245.245 38.3713408203125 500.5 38.3713408203125z" />
    <glyph glyph-name="face-upset"
      unicode="&#xE01E;"
      horiz-adv-x="1001" d=" M612.2786591796875 350.35C548.8823183593751 413.7463408203124 443.777318359375 413.7463408203124 380.38 350.35L420.42 310.31C462.1286591796875 352.0186591796875 528.8613408203125 352.0186591796875 570.5699999999999 310.31L612.2786591796875 350.35zM392.1916044921875 573.9063408203125C392.1916044921875 545.3426494140625 369.03663671875 522.187681640625 340.4729453125 522.187681640625S288.7542861328125 545.3426494140625 288.7542861328125 573.9063408203125C288.7542861328125 602.4700322265625 311.90925390625 625.625 340.4729453125 625.625S392.1916044921875 602.4700322265625 392.1916044921875 573.9063408203125zM702.5016044921875 573.9063408203125C702.5016044921875 545.3426494140625 679.34663671875 522.187681640625 650.7829453125 522.187681640625S599.0642861328124 545.3426494140625 599.0642861328124 573.9063408203125C599.0642861328124 602.4700322265625 622.21925390625 625.625 650.7829453125 625.625S702.5016044921875 602.4700322265625 702.5016044921875 573.9063408203125z M500.5 0C223.5563408203125 0 0 223.5563408203125 0 500.5S223.5563408203125 1001 500.5 1001S1001 777.4436591796875 1001 500.5S777.4436591796875 0 500.5 0zM500.5 38.3713408203125C755.755 38.3713408203125 962.6286591796876 245.2450000000001 962.6286591796876 500.5000000000001S755.755 962.6286591796874 500.5 962.6286591796874S38.3713408203125 755.755 38.3713408203125 500.5S245.245 38.3713408203125 500.5 38.3713408203125z" />
    <glyph glyph-name="facebook-stroke"
      unicode="&#xE01F;"
      horiz-adv-x="531.78125" d=" M337.2431562500001 0V456.92521875H490.5525625L513.4504375 634.5714375H337.2431562500001V748.4351875C337.2431562500001 799.54875 351.8515000000001 835.05296875 425.8003750000001 835.05296875H519.73796875V994.21196875C503.6594062500001 996.15140625 447.7285312500001 1001.03128125 382.5071250000001 1001.03128125C246.7152187500001 1001.03128125 153.7473437500001 918.32365625 153.7473437500001 765.98396875V634.6027187499999H0V456.9564999999999H153.74734375V0.0312812499999H337.211875z" />
    <glyph glyph-name="facebook"
      unicode="&#xE020;"
      horiz-adv-x="1001" d=" M723.2225000000001 750.75H277.7775000000001C262.7625 750.75 250.25 738.2375 250.25 723.2225V277.7774999999999C250.25 262.7625 262.7625 250.25 277.7775000000001 250.25H518.0175V442.9425H452.9525V518.0175H518.0175V575.575C518.0175 640.64 558.0575000000001 675.6750000000001 615.6150000000001 675.6750000000001C643.1425 675.6750000000001 668.1675000000001 673.1725000000001 673.1725000000001 673.1725000000001V605.605H633.1325C600.6000000000001 605.605 595.5950000000001 590.59 595.5950000000001 568.0675000000001V520.5200000000001H670.6700000000001L660.6600000000001 445.4450000000001H595.595V250.25H723.2225C738.2375 250.25 750.7499999999999 262.7625 750.7499999999999 277.7774999999999V723.2225C750.7499999999999 738.2375 738.2375 750.75 723.2225 750.75z" />
    <glyph glyph-name="filter"
      unicode="&#xE021;"
      horiz-adv-x="1001" d=" M462.9625 477.9775000000001L312.8125 688.1875H688.1875L538.0375 477.9775000000001V350.3500000000002L462.9625 312.8125V477.9775000000001z" />
    <glyph glyph-name="free-delivery"
      unicode="&#xE022;"
      horiz-adv-x="1001" d=" M531.78125 162.6625V450.4499999999999H807.05625V500.5H531.78125V650.6500000000001H481.73125V675.6750000000001V713.2125000000001C481.73125 758.2574999999999 440.44 788.2875 394.1437500000001 788.2875S319.06875 758.2575 319.06875 713.2125000000001C319.06875 685.685 330.3300000000001 663.1625 349.09875 650.6500000000001H481.73125V500.5H206.45625V650.6500000000001H285.285C275.275 669.41875 269.01875 690.69 269.01875 713.2125000000001C269.01875 782.03125 320.32 838.3375000000001 391.64125 838.3375000000001C436.68625 838.3375000000001 480.48 815.815 506.75625 782.03125C533.0325 815.815 578.0775 838.3375000000001 621.8712499999999 838.3375000000001C691.94125 838.3375000000001 744.4937499999999 782.03125 744.4937499999999 713.2125000000001C744.4937499999999 709.45875 744.4937499999999 704.4537500000001 743.2425 700.7H693.1924999999999C693.1924999999999 704.45375 694.4437499999999 708.2075 694.4437499999999 713.2125000000001C694.4437499999999 758.2574999999999 665.6649999999998 788.2875 619.3687499999999 788.2875S531.78125 758.2574999999999 531.78125 713.2125000000001V650.6500000000001H807.05625V162.6625000000001H531.78125zM481.73125 162.6625H206.45625V450.4499999999999H481.73125V162.6625z" />
    <glyph glyph-name="full-bag"
      unicode="&#xE023;"
      horiz-adv-x="1001" d=" M350.35 600.5999999999999H650.6499999999999V300.3000000000001H350.3499999999999V600.6z M300.3 600.5999999999999H700.6999999999999V650.65H300.3V600.5999999999999zM300.3 300.3000000000001H350.35V600.6H300.3V300.3000000000001zM650.6499999999999 300.3000000000001H700.6999999999999V600.6H650.6499999999999V300.3000000000001zM300.3 250.25V300.3000000000001H700.6999999999999V250.25H300.3zM450.5125625 700.7V650.6500000000001H400.4000000000001V725.7249999999999L425.4250000000001 750.75H575.575L600.6625625 725.7249999999999V650.65H550.5500000000001V700.6687187499999L450.48128125 700.7zM400.4000000000001 600.5999999999999H450.45V550.55H400.4000000000001V600.5999999999999zM550.5500000000001 600.5999999999999H600.6000000000001V550.55H550.5500000000001V600.5999999999999z" />
    <glyph glyph-name="gear"
      unicode="&#xE024;"
      horiz-adv-x="1001" d=" M536.25446875 893.73659375H464.7455312500001V929.4910625C464.74553125 972.37765625 436.15446875 1001 393.23659375 1001H214.49553125C171.6089375 1001 142.98659375 972.4089375 142.98659375 929.4910625V893.73659375H107.232125C28.5910625 893.73659375 -0.03128125 829.3910625 -0.03128125 750.75V71.5089375C-0.03128125 28.62234375 28.55978125 0 71.47765625 0H571.97765625C614.86425 0 643.48659375 28.5910625 643.48659375 71.5089375V714.99553125C643.48659375 793.63659375 614.89553125 893.73659375 536.2231875000001 893.73659375zM142.98659375 858.01340625H214.49553125V929.52234375H393.23659375V858.01340625H464.74553125C529.0910624999999 858.01340625 557.6821249999999 815.1268125 564.8455312499999 757.91340625C543.38659375 793.667875 507.6321249999999 822.2589375 464.74553125 822.2589375H107.232125C85.7731875 822.2589375 64.34553125 815.09553125 50.01871875 800.8C64.31425 836.55446875 92.9053125 858.01340625 142.9553125 858.01340625zM572.0089375 286.00446875H35.75446875V643.517875C35.75446875 722.1589375 64.34553125 786.50446875 143.017875 786.50446875H429.02234375A143.42453125 143.42453125 0 0 0 572.0089375 643.517875V286.00446875zM929.4910625000002 679.2410625H714.9955312500001V607.732125H786.5044687500001V428.9910625H714.9955312500001V393.2365937499999H929.4910625000002V178.7410625H714.9955312500001V35.75446875C714.9955312500001 21.4589375 722.1589375000001 7.16340625 714.9955312500001 0H929.4910625000002C972.37765625 0 1001 28.5910625 1001 71.5089375V607.76340625C1001 657.8134062500001 972.4089375 679.27234375 929.4910625 679.27234375zM929.4910625000002 572.0089375V429.0223437500001H857.982125V607.7634062500001H893.73659375C936.6231875 607.7634062500001 929.4910625000002 607.7634062500001 929.4910625000002 572.0089375000001zM107.2634062500001 321.7589375H214.5268125000001V429.02234375H107.26340625V321.7589375z" />
    <glyph glyph-name="google-plus"
      unicode="&#xE025;"
      horiz-adv-x="1001" d=" M318.47440625 553.8658125V444.569125H499.123625C491.89765625 397.64725 444.569125 307.1193125 318.47440625 307.1193125C209.7720625 307.1193125 120.995875 397.2405937499999 120.995875 508.2890312499999S209.7720625 709.45875 318.47440625 709.45875C380.4425625 709.45875 421.70253125 683.0573750000001 445.35115625 660.37846875L531.74996875 743.64915625C476.2257499999999 795.45090625 404.278875 826.9198437499999 318.443125 826.9198437499999C142.29840625 826.73215625 -0.03128125 684.40246875 -0.03128125 508.22646875S142.29840625 189.7520625000001 318.443125 189.7520625000001C502.22046875 189.7520625000001 624.2173437499999 318.9749062500001 624.2173437499999 501.0005A289.9771875 289.9771875 0 0 1 619.1184999999999 553.80325H318.41184375zM1001 563.0625H907.15625V656.90625H813.3125V563.0625H719.46875V469.21875H813.3125V375.375H907.15625V469.21875H1001z" />
    <glyph glyph-name="half-bag"
      unicode="&#xE026;"
      horiz-adv-x="1001" d=" M350.35 450.4499999999999H650.6499999999999V300.3H350.3499999999999V450.4499999999999z M300.3 600.5999999999999H700.6999999999999V650.65H300.3V600.5999999999999zM300.3 300.3000000000001H350.35V600.6H300.3V300.3000000000001zM650.6499999999999 300.3000000000001H700.6999999999999V600.6H650.6499999999999V300.3000000000001zM300.3 250.25V300.3000000000001H700.6999999999999V250.25H300.3zM450.5125625 700.7V650.6500000000001H400.4000000000001V725.7249999999999L425.4250000000001 750.75H575.575L600.6625625 725.7249999999999V650.65H550.5500000000001V700.6687187499999L450.48128125 700.7zM400.4000000000001 600.5999999999999H450.45V550.55H400.4000000000001V600.5999999999999zM550.5500000000001 600.5999999999999H600.6000000000001V550.55H550.5500000000001V600.5999999999999z" />
    <glyph glyph-name="head-7pro-5g"
      unicode="&#xE027;"
      horiz-adv-x="1001" d=" M565.565 800.8H310.31C290.29 800.8 275.275 783.2825 275.275 760.76V237.7375000000001C275.275 217.7175 290.29 200.2000000000001 310.31 197.6975H563.0625C583.0825 197.6975 600.5999999999999 215.215 598.0975 237.7375000000001V760.76C600.5999999999999 783.2825 585.5849999999999 800.8 565.5649999999999 800.8zM573.0725 260.26C573.0725 255.255 570.5699999999999 247.7475000000001 565.565 242.7425000000001C560.5600000000001 237.7375000000001 555.5550000000001 235.235 550.55 235.235H325.325C320.32 235.235 312.8125 237.7375000000001 310.31 242.7425000000001C305.305 247.7475000000001 302.8025 252.7525 302.8025 260.26V750.75C302.8025 763.2625 312.8125 773.2725 325.325 773.2725H550.55C563.0625 773.2725 573.0724999999999 763.2625 573.0724999999999 750.75V260.26z M685.685 758.2575H643.1424999999999V242.7425000000001C643.1424999999999 217.7175 625.625 200.2000000000001 600.5999999999999 200.2000000000001H685.685C708.2074999999999 200.2000000000001 728.2274999999998 217.7175 728.2274999999998 242.7425000000001V715.715C728.2274999999998 740.74 713.2124999999999 758.2574999999999 685.685 758.2574999999999z M365.365 540.5400000000001L372.8725 533.0325C377.8775 530.53 380.38 528.0275000000001 387.8875 528.0275000000001S400.4 530.5300000000001 402.9025000000001 533.0325C407.9075 538.0375 410.4100000000001 543.0425 410.4100000000001 548.0475000000001C410.4100000000001 555.5550000000001 407.9075 558.0575000000001 405.4050000000001 563.0625000000001C400.4000000000001 568.0675000000001 395.3950000000001 568.0675000000001 387.8875000000001 568.0675000000001C385.3850000000001 568.0675000000001 385.3850000000001 568.0675000000001 382.8825000000001 565.565C380.3800000000001 565.565 377.8775000000001 563.0625 375.3750000000001 563.0625L372.8725000000001 560.56L362.8625000000001 565.565L377.8775000000001 618.1175H432.9325000000001L430.4300000000001 600.5999999999999H390.3900000000001L382.8825000000001 575.5749999999999C385.3850000000001 578.0775 392.8925000000001 578.0775 397.8975000000001 578.0775C400.4000000000001 578.0775 402.9025000000001 578.0775 407.9075 575.5749999999999C410.4100000000001 575.5749999999999 415.415 573.0724999999999 417.9175 570.5699999999999C420.42 568.0674999999999 422.9225 565.565 425.425 560.56C427.9275 555.5550000000001 427.9275 550.55 427.9275 545.545C427.9275 533.0325 422.9225 525.5249999999999 415.415 518.0174999999999C407.9075 510.5099999999999 397.8975000000001 508.0074999999999 385.3850000000001 508.0074999999999C367.8675000000001 508.0074999999999 355.3550000000001 518.0174999999999 347.8475000000001 528.0274999999999L365.365 540.54zM520.52 553.0525C520.52 548.0475000000001 520.52 545.5450000000001 518.0174999999999 543.0425C513.0124999999999 525.5250000000001 495.495 515.5150000000001 477.9774999999999 518.0175000000002H475.475C470.47 518.0175000000002 462.9625 520.5200000000002 457.9575 523.0225C452.9525 525.5250000000001 447.9475000000001 528.0275000000001 445.445 533.0325C437.9375 540.5400000000001 435.435 553.0525 435.435 565.565C435.435 575.575 437.9375000000001 583.0825 440.44 590.59C442.9425000000001 598.0975000000001 447.9475000000001 605.605 450.45 610.6100000000001C460.4599999999999 623.1225000000001 472.9724999999999 628.1275 487.9875 628.1275C495.495 628.1275 503.0025 625.625 510.5099999999999 623.1225000000001C518.0174999999999 618.1175000000001 523.0224999999999 613.1125000000001 525.525 608.1075000000001L513.0124999999999 600.6000000000001C508.0075 610.6100000000001 497.9974999999999 613.1125000000001 487.9875 613.1125000000001S470.47 608.1075000000001 465.465 598.0975000000001C460.46 590.59 457.9575 580.5800000000002 457.9575 568.0675000000001C457.9575 558.0575000000001 460.46 550.5500000000002 462.9625 545.5450000000001C467.9675 540.5400000000002 472.9724999999999 538.0375000000001 480.48 538.0375000000001C485.485 538.0375000000001 487.9875 538.0375000000001 492.9924999999999 540.5400000000002S503.0024999999999 548.0475000000001 503.0024999999999 555.5550000000002V563.0625000000002H480.48L482.9825 578.0775000000002H523.0225L520.52 553.0525000000002z" />
    <glyph glyph-name="head-7pro"
      unicode="&#xE028;"
      horiz-adv-x="1001" d=" M685.685 758.2575H643.1424999999999V242.7425000000001C643.1424999999999 217.7175 625.625 200.2000000000001 600.5999999999999 200.2000000000001H685.685C708.2074999999999 200.2000000000001 728.2274999999998 217.7175 728.2274999999998 242.7425000000001V715.715C728.2274999999998 740.74 713.2124999999999 758.2574999999999 685.685 758.2574999999999z M565.565 800.8H310.31C290.29 800.8 275.275 783.2825 275.275 760.76V237.7375000000001C275.275 217.7175 290.29 200.2000000000001 310.31 197.6975H563.0625C583.0825 197.6975 600.5999999999999 215.215 598.0975 237.7375000000001V760.76C600.5999999999999 783.2825 585.5849999999999 800.8 565.5649999999999 800.8zM573.0725 260.26C573.0725 255.255 570.5699999999999 247.7475000000001 565.565 242.7425000000001C560.5600000000001 237.7375000000001 555.5550000000001 235.235 550.55 235.235H325.325C320.32 235.235 312.8125 237.7375000000001 310.31 242.7425000000001C305.305 247.7475000000001 302.8025 252.7525 302.8025 260.26V750.75C302.8025 763.2625 312.8125 773.2725 325.325 773.2725H550.55C563.0625 773.2725 573.0724999999999 763.2625 573.0724999999999 750.75V260.26z" />
    <glyph glyph-name="head-7t-5g"
      unicode="&#xE029;"
      horiz-adv-x="1001" d=" M565.565 800.8H310.31C290.29 800.8 275.275 783.2825 275.275 760.76V237.7375000000001C275.275 217.7175 290.29 200.2000000000001 310.31 197.6975H563.0625C583.0825 197.6975 600.5999999999999 215.215 598.0975 237.7375000000001V760.76C600.5999999999999 783.2825 585.5849999999999 800.8 565.5649999999999 800.8zM573.0725 270.2700000000001C573.0725 265.2650000000001 570.5699999999999 257.7575000000001 565.565 252.7525000000001C560.5600000000001 247.7475000000001 555.5550000000001 245.245 550.55 245.245H325.325C320.32 245.245 312.8125 247.7475000000001 310.31 252.7525000000001C305.305 257.7575000000001 302.8025 262.7625000000001 302.8025 270.2700000000001V750.75C302.8025 763.2625 312.8125 773.2725 325.325 773.2725H395.395C400.4 773.2725 405.405 770.77 410.4100000000001 768.2675L420.42 758.2575C425.425 753.2525 430.43 748.2475000000001 437.9375 748.2475000000001C445.445 748.2475000000001 452.9525 753.2525 455.455 758.2575L465.4649999999999 768.2675C470.4699999999999 770.77 475.4749999999999 773.2725 480.48 773.2725H550.55C563.0625 773.2725 573.0724999999999 763.2625 573.0724999999999 750.75V270.2700000000001z M683.1825 758.2575H640.64V242.7425000000001C640.64 217.7175 623.1225000000001 200.2000000000001 598.0975 200.2000000000001H683.1825C705.7049999999999 200.2000000000001 725.7249999999999 217.7175 725.7249999999999 242.7425000000001V715.715C725.7249999999999 740.74 708.2075 758.2574999999999 683.1825 758.2574999999999z M365.365 540.5400000000001L372.8725 533.0325C377.8775 530.53 380.38 528.0275000000001 387.8875 528.0275000000001S400.4 530.5300000000001 402.9025000000001 533.0325C407.9075 538.0375 410.4100000000001 543.0425 410.4100000000001 548.0475000000001C410.4100000000001 555.5550000000001 407.9075 558.0575000000001 405.4050000000001 563.0625000000001C400.4000000000001 568.0675000000001 395.3950000000001 568.0675000000001 387.8875000000001 568.0675000000001C385.3850000000001 568.0675000000001 385.3850000000001 568.0675000000001 382.8825000000001 565.565C380.3800000000001 565.565 377.8775000000001 563.0625 375.3750000000001 563.0625L372.8725000000001 560.56L362.8625000000001 565.565L377.8775000000001 618.1175H432.9325000000001L430.4300000000001 600.5999999999999H390.3900000000001L382.8825000000001 575.5749999999999C385.3850000000001 578.0775 392.8925000000001 578.0775 397.8975000000001 578.0775C400.4000000000001 578.0775 402.9025000000001 578.0775 407.9075 575.5749999999999C410.4100000000001 575.5749999999999 415.415 573.0724999999999 417.9175 570.5699999999999C420.42 568.0674999999999 422.9225 565.565 425.425 560.56C427.9275 555.5550000000001 427.9275 550.55 427.9275 545.545C427.9275 533.0325 422.9225 525.5249999999999 415.415 518.0174999999999C407.9075 510.5099999999999 397.8975000000001 508.0074999999999 385.3850000000001 508.0074999999999C367.8675000000001 508.0074999999999 355.3550000000001 518.0174999999999 347.8475000000001 528.0274999999999L365.365 540.54zM520.52 553.0525C520.52 548.0475000000001 520.52 545.5450000000001 518.0174999999999 543.0425C513.0124999999999 525.5250000000001 495.495 515.5150000000001 477.9774999999999 518.0175000000002H475.475C470.47 518.0175000000002 462.9625 520.5200000000002 457.9575 523.0225C452.9525 525.5250000000001 447.9475000000001 528.0275000000001 445.445 533.0325C437.9375 540.5400000000001 435.435 553.0525 435.435 565.565C435.435 575.575 437.9375000000001 583.0825 440.44 590.59C442.9425000000001 598.0975000000001 447.9475000000001 605.605 450.45 610.6100000000001C460.4599999999999 623.1225000000001 472.9724999999999 628.1275 487.9875 628.1275C495.495 628.1275 503.0025 625.625 510.5099999999999 623.1225000000001C518.0174999999999 618.1175000000001 523.0224999999999 613.1125000000001 525.525 608.1075000000001L513.0124999999999 600.6000000000001C508.0075 610.6100000000001 497.9974999999999 613.1125000000001 487.9875 613.1125000000001S470.47 608.1075000000001 465.465 598.0975000000001C460.46 590.59 457.9575 580.5800000000002 457.9575 568.0675000000001C457.9575 558.0575000000001 460.46 550.5500000000002 462.9625 545.5450000000001C467.9675 540.5400000000002 472.9724999999999 538.0375000000001 480.48 538.0375000000001C485.485 538.0375000000001 487.9875 538.0375000000001 492.9924999999999 540.5400000000002S503.0024999999999 548.0475000000001 503.0024999999999 555.5550000000002V563.0625000000002H480.48L482.9825 578.0775000000002H523.0225L520.52 553.0525000000002z" />
    <glyph glyph-name="head-7t"
      unicode="&#xE02A;"
      horiz-adv-x="1001" d=" M565.565 800.8H310.31C290.29 800.8 275.275 783.2825 275.275 760.76V237.7375000000001C275.275 217.7175 290.29 200.2000000000001 310.31 197.6975H563.0625C583.0825 197.6975 600.5999999999999 215.215 598.0975 237.7375000000001V760.76C600.5999999999999 783.2825 585.5849999999999 800.8 565.5649999999999 800.8zM573.0725 270.2700000000001C573.0725 265.2650000000001 570.5699999999999 257.7575000000001 565.565 252.7525000000001C560.5600000000001 247.7475000000001 555.5550000000001 245.245 550.55 245.245H325.325C320.32 245.245 312.8125 247.7475000000001 310.31 252.7525000000001C305.305 257.7575000000001 302.8025 262.7625000000001 302.8025 270.2700000000001V750.75C302.8025 763.2625 312.8125 773.2725 325.325 773.2725H395.395C400.4 773.2725 405.405 770.77 410.4100000000001 768.2675L420.42 758.2575C425.425 753.2525 430.43 748.2475000000001 437.9375 748.2475000000001C445.445 748.2475000000001 452.9525 753.2525 455.455 758.2575L465.4649999999999 768.2675C470.4699999999999 770.77 475.4749999999999 773.2725 480.48 773.2725H550.55C563.0625 773.2725 573.0724999999999 763.2625 573.0724999999999 750.75V270.2700000000001z M683.1825 758.2575H640.64V242.7425000000001C640.64 217.7175 623.1225000000001 200.2000000000001 598.0975 200.2000000000001H683.1825C705.7049999999999 200.2000000000001 725.7249999999999 217.7175 725.7249999999999 242.7425000000001V715.715C725.7249999999999 740.74 708.2075 758.2574999999999 683.1825 758.2574999999999z" />
    <glyph glyph-name="head-audio"
      unicode="&#xE02B;"
      horiz-adv-x="1001" d=" M715.715 758.2575H630.63V565.565H715.715C763.2624999999999 565.565 800.8 603.1025000000001 800.8 650.6500000000001V673.1725000000001C800.8 718.2175000000001 763.2624999999999 758.2575 715.715 758.2575zM342.8425000000001 608.1075000000001C312.8125 608.1075000000001 287.7875 633.1325 287.7875 660.6600000000001C287.7875 690.69 312.8125 715.715 342.8425 715.715S395.3949999999999 690.69 395.3949999999999 663.1625000000001C392.8925 633.1325000000002 367.8675 608.1075000000001 342.8425 608.1075000000001zM342.8425000000001 800.8000000000001C265.265 800.8 200.2 735.735 200.2 658.1575C200.2 585.585 265.265 520.52 342.8425 520.52C415.4149999999999 520.52 480.48 585.585 480.48 658.1575C477.9774999999999 735.735 415.4149999999999 800.8000000000001 342.8425 800.8000000000001zM350.35 500.5H327.8275000000001C315.315 500.5 305.305 492.9925 305.305 477.9775000000001V370.37C305.305 357.8575000000001 312.8125 347.8475000000001 327.8275000000001 347.8475000000001H350.35C362.8625 347.8475000000001 372.8725000000001 355.3550000000002 372.8725000000001 370.37V477.9775000000001C372.8725000000001 492.9925000000001 362.8625 500.5 350.35 500.5zM327.8275000000001 200.2000000000001H350.35V327.8275000000001H327.8275000000001V200.2000000000001zM585.585 500.5H563.0625000000001C550.5500000000001 500.5 540.5400000000001 492.9925 540.5400000000001 477.9775000000001V370.37C540.5400000000001 357.8575000000001 548.0475000000001 347.8475000000001 563.0625000000001 347.8475000000001H585.585C598.0975 347.8475000000001 608.1075 355.3550000000002 608.1075 370.37V477.9775000000001C608.1075 492.9925000000001 598.0975 500.5 585.585 500.5zM565.565 200.2000000000001H588.0875V327.8275000000001H565.565V200.2000000000001zM578.0775 800.8C555.5550000000001 800.8 543.0425 788.2875 543.0425 765.765V550.55C543.0425 533.0325 555.5550000000001 515.5150000000001 578.0775 515.5150000000001C595.595 515.5150000000001 608.1075 528.0275000000001 608.1075 550.55V765.765C608.1075 788.2875 595.595 800.8 578.0775 800.8z" />
    <glyph glyph-name="head-bundles"
      unicode="&#xE02C;"
      horiz-adv-x="1001" d=" M560.56 477.9775000000001H538.0375V563.0625C538.0375 575.575 530.53 585.585 520.52 585.585C508.0075 585.585 497.9975 578.0775 497.9975 563.0625V477.9775000000001H460.46V563.0625C460.46 575.575 452.9525 585.585 437.9375000000001 585.585C425.4250000000001 585.585 415.4150000000001 578.0775 415.4150000000001 563.0625V477.9775000000001H397.8975000000001C385.3850000000001 477.9775000000001 375.3750000000001 470.47 375.3750000000001 455.4550000000002V220.2200000000002C375.3750000000001 207.7075000000001 382.8825000000001 197.6975000000002 397.8975000000001 197.6975000000002H555.5550000000002C568.0675000000001 197.6975000000002 578.0775000000001 205.2050000000002 578.0775000000001 220.2200000000002V455.4550000000002C583.0825000000001 470.4700000000001 573.0725000000001 477.9775000000001 560.5600000000001 477.9775000000001zM763.2624999999999 800.8H540.54C518.0175 800.8 500.5 783.2825 500.5 758.2575V630.6300000000001H538.0375V738.2375C538.0375 750.75 545.545 760.76 560.56 760.76H740.7399999999999C753.2524999999999 760.76 763.2624999999998 753.2525 763.2624999999998 738.2375V265.2650000000001C763.2624999999998 252.7525000000001 755.7549999999999 242.7425000000001 740.7399999999999 242.7425000000001H620.6199999999999V200.2000000000001H763.2624999999998C788.2874999999999 200.2000000000001 800.7999999999998 217.7175 800.7999999999998 242.7425000000001V758.2575C800.7999999999998 783.2825 783.2824999999999 800.8000000000001 763.2624999999998 800.8000000000001zM680.68 673.1725H718.2175V715.715H680.68V673.1725zM242.7425 435.435C242.7425 543.0425 320.32 628.1274999999999 417.9175 628.1274999999999H455.455V670.67H417.9175C297.7975 670.67 200.2 563.0625 200.2 435.435C200.2 337.8375000000001 260.26 250.25 342.8425 217.7175V265.265C282.7825 297.7975 242.7425 362.8625 242.7425 435.435zM380.38 535.535V583.0825C325.325 560.56 282.7825 505.5049999999999 282.7825 437.9374999999999C282.7825 385.3849999999999 307.8075 342.8425 342.8425 312.8125V365.365C330.33 387.8875 320.32 407.9074999999999 320.32 437.9374999999999C320.32 487.9875 342.8425 523.0224999999999 380.38 535.5349999999999z" />
    <glyph glyph-name="head-cases-protection"
      unicode="&#xE02D;"
      horiz-adv-x="1001" d=" M758.2574999999999 758.2575H715.715V242.7425000000001C715.715 217.7175 698.1975 200.2000000000001 673.1725 200.2000000000001H758.2574999999999C780.78 200.2000000000001 800.8 217.7175 800.8 242.7425000000001V715.715C800.8 740.74 783.2825 758.2574999999999 758.2574999999999 758.2574999999999zM282.7825000000001 242.7425000000001V758.2575H242.7425C217.7175 758.2575 200.2 740.74 200.2 715.715V242.7425000000001C200.2 217.7175000000001 217.7175 200.2000000000002 242.7425 200.2000000000002H325.325C302.8025 200.2000000000002 282.7825000000001 217.7175000000001 282.7825000000001 242.7425000000001zM675.675 758.2575C675.675 783.2825 658.1575 800.8000000000001 633.1324999999999 800.8000000000001H367.8675C345.345 800.8000000000001 325.325 783.2825 325.325 758.2575V242.7425000000001C325.325 217.7175 342.8425 200.2000000000001 367.8675 200.2000000000001H638.1374999999999C660.66 200.2000000000001 680.68 217.7175 680.68 242.7425000000001V758.2575H675.675z M465.465 705.7049999999999H395.395C380.38 705.7049999999999 370.37 718.2175 370.37 730.73C370.37 745.745 382.8825 755.755 395.395 755.755H465.465C480.48 755.755 490.49 743.2425000000001 490.49 730.73S477.9775 705.7049999999999 465.465 705.7049999999999" />
    <glyph glyph-name="head-gear"
      unicode="&#xE02E;"
      horiz-adv-x="1001" d=" M285.285 410.41H350.35V475.475H285.285V410.41zM758.2574999999999 560.56V475.475H715.7149999999999V583.0825H738.2374999999998C763.2624999999998 580.5799999999999 758.2574999999999 580.5799999999999 758.2574999999999 560.5600000000001zM758.2574999999999 623.1225H630.6299999999999V580.5799999999999H673.1724999999998V472.9725H630.6299999999999V430.4300000000001H758.2574999999999V322.8225H630.6299999999999V215.215H758.2574999999999C783.2824999999999 215.215 800.7999999999998 232.7325 800.7999999999998 257.7575V580.5799999999999C800.7999999999998 610.61 783.2824999999999 623.1225 758.2574999999999 623.1225zM543.0424999999999 365.365H242.7424999999999V615.615C242.7424999999999 655.655 275.2749999999999 690.6899999999999 317.8174999999999 690.6899999999999H470.4699999999999C510.5099999999999 690.6899999999999 545.5449999999998 658.1575 545.5449999999998 615.615V365.365zM200.2 650.6500000000001V260.26C200.2 237.7375000000001 220.22 217.7175 242.7425 217.7175H543.0424999999999C565.5649999999999 217.7175 585.5849999999999 237.7375000000001 585.5849999999999 260.26V650.6500000000001C585.5849999999999 695.695 548.0474999999999 733.2325000000001 503.0024999999999 733.2325000000001H282.7824999999999C237.7375 733.2325000000001 200.2 695.695 200.2 650.6500000000001z M445.445 800.8H342.8425000000001C320.32 800.8 300.3 783.2825 300.3 760.76V708.2075H482.9825V760.76C485.485 783.2825 467.9675 800.8 445.445 800.8zM345.345 733.2325000000001H442.9425V758.2575H345.345V733.2325000000001z" />
    <glyph glyph-name="head-oneplus-7"
      unicode="&#xE02F;"
      horiz-adv-x="1001" d=" M176.45753125 1001H627.28290625C658.4077500000001 1001 683.6204375 975.38065625 683.6204375 943.78659375V57.1821249999999C683.6204375 25.5880625 658.3764687500001 -0.0312812499999 627.28290625 -0.0312812499999H176.45753125C145.3326875 -0.0312812499999 120.12 25.5880625000001 120.12 57.182125V943.78659375C120.12 975.38065625 145.36396875 1001 176.45753125 1001zM204.6419375 958.11340625A28.403375 28.403375 0 0 1 176.45753125 929.52234375V100.13128125C176.45753125 84.33425 189.063875 71.54021875 204.6419375 71.54021875H599.0985000000001A28.403375 28.403375 0 0 1 627.28290625 100.13128125V929.52234375A28.37209375 28.37209375 0 0 1 599.0985000000001 958.11340625H469.7505312500001C443.1301875000001 958.11340625 440.6589687500001 911.911 401.8702187500001 911.911S360.7979375000001 958.11340625 334.3965625 958.11340625H204.61065625zM757.60059375 915.19553125H805.2106562499999A75.66934375 75.66934375 0 0 0 880.88 839.5261875V75.6693437500001A75.66934375 75.66934375 0 0 0 805.2106562499999 0H681.93125A75.66934375 75.66934375 0 0 1 757.60059375 75.6693437500001V915.19553125z" />
    <glyph glyph-name="head-oneplus-7pro-5g"
      unicode="&#xE030;"
      horiz-adv-x="1001" d=" M175.175 1001H628.7531250000001C660.0343750000001 1001 685.059375 975.975 685.059375 944.69375V56.30625C685.059375 25.025 660.0343750000001 0 628.7531250000001 0H175.175C143.89375 0 118.86875 25.025 118.86875 56.30625V944.69375C118.86875 975.975 143.89375 1001 175.175 1001zM175.175 963.4625C159.534375 963.4625 147.021875 950.95 147.021875 935.309375V81.33125C147.021875 65.690625 159.534375 53.178125 175.175 53.178125H628.7531250000001C644.3937500000001 53.178125 656.90625 65.690625 656.90625 81.33125V935.309375C656.90625 950.95 644.3937500000001 963.4625 628.7531250000001 963.4625H175.175z M757.00625 916.540625H803.928125C844.59375 916.540625 879.003125 882.13125 879.003125 841.465625V78.203125C879.003125 37.5375 844.5937499999999 3.1281250000001 803.928125 3.1281250000001H681.93125C722.5968750000001 3.1281250000001 757.00625 37.5375000000001 757.00625 78.203125V916.540625zM287.7875 541.1656250000001L300.3 528.653125C309.684375 525.5250000000001 312.8125 519.26875 325.325 519.26875S344.09375 522.3968749999999 350.35 528.653125C356.60625 538.0375 359.7343750000001 544.29375 359.7343750000001 553.678125S356.6062500000001 569.31875 353.4781250000001 575.575C344.0937500000001 584.959375 337.8375000000001 584.959375 325.3250000000001 584.959375C322.1968750000001 584.959375 322.1968750000001 584.959375 315.9406250000001 581.8312500000001C312.8125000000001 581.8312500000001 306.5562500000001 578.703125 303.428125 578.703125L300.3000000000001 575.575L284.6593750000001 584.9593750000001L309.6843750000001 669.41875H397.2718750000001L391.0156250000001 638.1375H328.4531250000001L315.9406250000002 597.4718750000001C319.0687500000001 600.6 331.5812500000002 600.6 340.9656250000001 600.6C344.0937500000001 600.6 350.3500000000002 600.6 356.6062500000001 597.4718750000001C359.7343750000001 597.4718750000001 369.1187500000002 594.34375 372.2468750000001 588.0875000000001C375.3750000000001 584.959375 381.6312500000002 578.703125 384.7593750000002 572.4468750000001C387.8875000000001 563.0625 387.8875000000001 556.8062500000001 387.8875000000001 547.421875C387.8875000000001 528.653125 378.5031250000002 516.140625 369.1187500000002 503.628125C356.6062500000001 491.115625 340.9656250000001 487.9875000000001 322.1968750000002 487.9875000000001C294.0437500000001 487.9875000000001 275.2750000000002 503.6281250000001 262.7625000000001 519.2687500000001L287.7875000000002 541.1656250000001zM538.0375 559.934375C538.0375 550.55 538.0375 547.421875 534.909375 544.29375C525.5249999999999 516.140625 497.3718749999999 500.5 469.2187499999999 503.628125H466.0906249999999C456.70625 503.628125 447.321875 506.75625 437.9375 513.0125C428.5531249999999 516.140625 422.296875 522.396875 419.16875 528.653125C406.65625 541.1656250000001 403.528125 559.934375 403.528125 581.83125C403.528125 597.471875 406.65625 609.984375 412.9125 622.496875C416.040625 635.0093750000001 425.425 647.521875 428.553125 653.778125C441.065625 672.546875 459.834375 681.9312500000001 484.859375 681.9312500000001C497.371875 681.9312500000001 509.884375 678.803125 522.396875 672.546875C531.78125 663.1624999999999 541.165625 656.90625 544.2937499999999 647.5218749999999L525.5249999999999 638.1374999999999C516.1406249999999 653.7781249999999 500.4999999999999 656.90625 484.8593749999999 656.90625S456.7062499999999 647.5218749999999 447.3218749999999 631.8812499999999C437.9374999999999 619.3687499999999 434.8093749999999 603.7281249999999 434.8093749999999 584.9593749999999C434.8093749999999 569.3187499999999 437.9374999999999 556.8062499999999 444.1937499999999 547.421875C453.5781249999999 541.165625 459.8343749999999 538.0374999999999 472.346875 538.0374999999999C481.7312499999999 538.0374999999999 484.8593749999999 538.0374999999999 491.1156249999999 541.1656249999999C500.4999999999999 544.2937499999998 509.8843749999999 553.6781249999999 509.8843749999999 563.0624999999999V575.5749999999998H472.346875L475.4749999999999 600.5999999999999H538.0374999999999V559.9343749999998z" />
    <glyph glyph-name="head-oneplus-7pro"
      unicode="&#xE031;"
      horiz-adv-x="1001" d=" M176.176 1001H627.59571875C658.5641562499999 1001 683.65171875 975.9124375 683.65171875 944.944V56.0559999999999C683.65171875 25.0875625 658.56415625 0 627.59571875 0H176.176C145.2075625 0 120.12 25.0875625 120.12 56.056V944.944C120.12 975.9124375 145.2075625 1001 176.176 1001zM176.33240625 963.80659375A28.028 28.028 0 0 1 148.30440625 935.77859375V82.3635312499999C148.30440625 66.8793125 160.8481875 54.3355312499999 176.33240625 54.3355312499999H627.4393125A28.028 28.028 0 0 1 655.4673125 82.3635312499999V935.77859375A28.028 28.028 0 0 1 627.4393125 963.80659375H176.33240625zM757.60059375 915.19553125H805.2106562499999A75.66934375 75.66934375 0 0 0 880.88 839.5261875V75.6693437500001A75.66934375 75.66934375 0 0 0 805.2106562499999 0H681.93125A75.66934375 75.66934375 0 0 1 757.60059375 75.6693437500001V915.19553125z" />
    <glyph glyph-name="head-oneplus-tv-acc"
      unicode="&#xE032;"
      horiz-adv-x="1001" d=" M477.9775 728.2275H523.0225V262.7625000000001H477.9775z M477.9775 265.2650000000001H523.0225L518.0175 222.7225000000001H482.9825000000001zM848.3475 750.75C863.3625 750.75 875.875 738.2375 875.875 723.2225000000001V317.8175000000001C875.875 302.8025000000001 863.3625 290.2900000000001 848.3475 290.2900000000001H152.6525C137.6375 290.2900000000001 125.125 302.8025000000001 125.125 317.8175000000001V723.2225000000001C125.125 738.2375 137.6375 750.75 152.6525 750.75H848.3475zM825.8249999999999 723.2225000000001H180.18C165.165 723.2225000000001 152.6525 710.71 152.6525 695.695V345.3450000000001C152.6525 330.3300000000001 165.165 317.8175 180.18 317.8175H825.8249999999999C840.84 317.8175 853.3525 330.3300000000001 853.3525 345.3450000000001V695.695C853.3525 710.71 840.84 723.2225000000001 825.8249999999999 723.2225000000001zM305.305 222.7225H695.6949999999999L700.6999999999998 202.7025H300.3z" />
    <glyph glyph-name="head-oneplus-tv"
      unicode="&#xE033;"
      horiz-adv-x="1001" d=" M525.525 265.2650000000001L520.52 225.225H695.6949999999999L700.6999999999999 202.7025000000001H300.3L302.8025 225.225H485.485L480.48 265.2650000000001H525.525zM848.3475 750.75C863.3625 750.75 875.875 738.2375 875.875 723.2225000000001V317.8175000000001C875.875 302.8025000000001 863.3625 290.2900000000001 848.3475 290.2900000000001H828.3275L815.8149999999999 265.2650000000001C815.8149999999999 262.7625000000001 813.3125 262.7625000000001 810.81 262.7625000000001H197.6975C195.195 262.7625000000001 192.6925 262.7625000000001 192.6925 265.2650000000001L180.18 290.2900000000001H152.6525C137.6375 290.2900000000001 125.125 302.8025000000001 125.125 317.8175000000001V723.2225000000001C125.125 738.2375 137.6375 750.75 152.6525 750.75H848.3475zM825.8249999999999 723.2225000000001H180.18C165.165 723.2225000000001 155.155 713.2125000000001 152.6525 698.1975V345.3450000000001C152.6525 330.3300000000001 162.6625 320.3200000000001 177.6775 317.8175H825.8249999999999C840.84 317.8175 850.8499999999999 327.8275 853.3525 342.8425V695.695C853.3525 710.71 840.84 723.2225000000001 825.8249999999999 723.2225000000001z" />
    <glyph glyph-name="head-oneplus7-2"
      unicode="&#xE034;"
      horiz-adv-x="1001" d=" M280.99946875 845.2819375H602.0076562500001C624.02965625 845.2819375 641.85996875 827.451625 641.85996875 805.429625V173.32940625C641.85996875 151.30740625 624.02965625 133.47709375 602.0076562500001 133.47709375H280.99946875C258.97746875 133.47709375 241.14715625 151.30740625 241.14715625 173.32940625V805.429625C241.14715625 827.451625 258.97746875 845.2819375 280.99946875 845.2819375zM281.0933125 818.84928125A19.926156250000002 19.926156250000002 0 0 1 261.16715625 798.923125V192.0355937500001C261.16715625 181.0245937500001 270.0823125 172.1094375000001 281.0933125 172.1094375000001H601.8825312499999A19.926156250000002 19.926156250000002 0 0 1 621.8086875 192.0355937500001V798.923125A19.926156250000002 19.926156250000002 0 0 1 601.8825312499999 818.84928125H281.0933125zM694.44375 784.2835H728.2900625C758.00725 784.2835 782.0938125 760.1969375 782.0938125 730.47975V187.28084375C782.0938125 157.5636562500001 758.00725 133.4770937500001 728.2900625 133.4770937500001H640.60871875C670.32590625 133.4770937500001 694.4124687499999 157.5636562500001 694.4124687499999 187.28084375V784.2835z" />
    <glyph glyph-name="head-oneplus7pro-2"
      unicode="&#xE035;"
      horiz-adv-x="1001" d=" M281.1871562500001 867.52290625H601.7886875A40.3528125 40.3528125 0 0 0 641.8599687499999 826.826V196.35240625C641.8599687499999 173.8924687499999 623.9045312499999 155.6555 601.7886875 155.6555H281.1871562500001A40.3528125 40.3528125 0 0 0 241.1158750000001 196.35240625V826.826C241.1158750000001 849.2859375 259.0713125000001 867.52290625 281.1871562500001 867.52290625zM301.2384375000001 837.0236875A20.2076875 20.2076875 0 0 1 281.1871562500001 816.690875V226.9141875000001C281.1871562500001 215.6842187500001 290.1648750000001 206.5813750000001 301.2384375000001 206.5813750000001H581.73740625A20.2076875 20.2076875 0 0 1 601.7886875 226.9141875000001V816.690875A20.2076875 20.2076875 0 0 1 581.73740625 837.0236875H489.77053125C470.845375 837.0236875 469.0936250000001 804.178375 441.5035625000001 804.178375S412.2868750000001 837.0236875 393.5181250000001 837.0236875H301.2384375000001H301.26971875zM694.44375 806.52446875H728.2900625C758.00725 806.52446875 782.0938125 782.43790625 782.0938125 752.7207187500001V209.5218125C782.0938125 179.804625 758.00725 155.7180625000001 728.2900625 155.7180625000001H640.60871875C670.32590625 155.7180625000001 694.4124687499999 179.804625 694.4124687499999 209.5218125V806.52446875z" />
    <glyph glyph-name="head-oneplus7pro-5g"
      unicode="&#xE036;"
      horiz-adv-x="1001" d=" M253.59709375 845.2819375H592.0289375000001C609.2336250000001 845.2819375 623.1850625000001 831.3305 623.1850625000001 814.1258124999999V164.6019375C623.1850625000001 147.39725 609.233625 133.4458125000001 592.0289375000001 133.4458125000001H253.59709375A31.156125000000003 31.156125000000003 0 0 0 222.44096875 164.6019375V814.1258124999999C222.44096875 831.3305 236.39240625 845.2819375 253.59709375 845.2819375zM258.03903125 818.84928125A15.578062500000001 15.578062500000001 0 0 1 242.46096875 803.27121875V187.6562187500001C242.46096875 179.0538750000001 249.4366875 172.07815625 258.03903125 172.07815625H587.55571875A15.578062500000001 15.578062500000001 0 0 1 603.1337812500001 187.6562187500001V803.27121875A15.578062500000001 15.578062500000001 0 0 1 587.55571875 818.84928125H258.03903125zM675.7688437500001 784.2835H721.37690625C744.58759375 784.2835 763.4189062500001 765.4521875 763.4189062500001 742.2415V175.5190937499999C763.4189062500001 152.3084062499999 744.58759375 133.4770937499999 721.37690625 133.4770937499999H633.7268437500001C656.93753125 133.4770937499999 675.7688437500001 152.3084062499999 675.7688437500001 175.5190937499999V784.2835z M342.0291875 517.86109375L350.56896875 509.3213125C356.26215625 506.47471875 359.10875 503.628125 367.64853125 503.628125S381.8815 506.47471875 384.7280937499999 509.3213125C390.42128125 515.0145 393.267875 520.7076875 393.267875 526.400875C393.267875 534.94065625 390.42128125 537.7872500000001 387.5746874999999 543.4804374999999C381.8814999999999 549.1736249999999 376.1883124999999 549.1736249999999 367.6485312499999 549.1736249999999C364.8019374999999 549.1736249999999 364.8019374999999 549.1736249999999 361.9553437499999 546.32703125C359.10875 546.32703125 356.2621562499999 543.4804375 353.4155624999999 543.4804375L350.5689687499999 540.6338437500001L339.1825937499999 546.3270312500001L356.2621562499999 606.1055000000001H418.8872187499998L416.0406249999999 586.17934375H370.4951249999999L361.9553437499999 557.7134062499999C364.8019374999999 560.56 373.34171875 560.56 379.0349062499999 560.56C381.8814999999999 560.56 384.7280937499999 560.56 390.4212812499999 557.7134062499999C393.2678749999999 557.7134062499999 398.9610624999999 554.8668125 401.8076562499999 552.02021875S407.50084375 546.32703125 410.3474374999999 540.63384375C413.1940312499999 534.94065625 413.1940312499999 529.2474687499999 413.1940312499999 523.55428125C413.1940312499999 509.3213125 407.5008437499999 500.78153125 398.9610624999999 492.24175S379.0349062499999 480.855375 364.8019374999999 480.855375C344.8757812499998 480.855375 330.6428124999998 492.24175 322.1030312499999 503.628125L342.0291874999999 517.86109375zM518.54928125 532.0940625000001C518.54928125 526.400875 518.54928125 523.55428125 515.7026875 520.7076875C510.0095000000001 500.7815312499999 490.08334375 489.39515625 470.1571875 492.24175H467.3105937500001C461.61740625 492.24175 453.0776250000001 495.08834375 447.3844375000001 497.9349375S435.9980625 503.628125 433.1514687500001 509.3213125S421.76509375 532.0940625000001 421.76509375 546.32703125C421.76509375 557.7134062499999 424.6116875 566.2531875 427.4582812500001 574.79296875S435.9980625 591.8725312500001 438.8446562500001 597.56571875C450.2310312500001 611.7986874999999 464.4640000000001 617.4918749999999 481.5435625000001 617.4918749999999C490.08334375 617.4918749999999 498.623125 614.64528125 507.16290625 611.7986874999999C515.7026875 606.1055 521.3958749999999 600.4123125 524.2424687500001 594.7191250000001L510.0095000000001 586.17934375C504.3163125000001 597.5657187500001 492.9299375000001 600.4123125000001 481.5435625000001 600.4123125000001S461.61740625 594.7191250000001 455.9242187500001 583.33275C450.2310312500001 574.79296875 447.3844375000001 563.40659375 447.3844375000001 549.173625C447.3844375000001 537.7872500000001 450.2310312500001 529.24746875 453.0776250000001 523.55428125A25.838312499999997 25.838312499999997 0 0 1 473.0037812500001 515.0145C478.6969687500001 515.0145 481.5435625000001 515.0145 487.2367500000001 517.86109375S498.6231250000001 526.400875 498.6231250000001 534.9406562500001V543.4804375H473.0037812500002L475.8503750000002 560.56H521.3958750000002L518.5492812500001 532.0940625000001z" />
    <glyph glyph-name="head-phone"
      unicode="&#xE037;"
      horiz-adv-x="1001" d=" M282.7825000000001 800.8H543.0425C560.5600000000001 800.8 575.575 785.7850000000001 575.575 768.2674999999999V250.25C575.575 232.7325000000001 560.5600000000001 217.7175 543.0425 217.7175H282.7825000000001C265.2650000000001 217.7175 250.25 232.7325000000001 250.25 250.25V768.2674999999999C250.25 785.785 265.265 800.8 282.7825000000001 800.8zM282.7825000000001 778.2775C272.7725 778.2775 265.2650000000001 770.77 265.2650000000001 760.76V265.2650000000001C265.2650000000001 255.2550000000001 272.7725000000001 247.7475000000001 282.7825000000001 247.7475000000001H543.0425C553.0525 247.7475000000001 560.5600000000001 255.2550000000001 560.5600000000001 265.2650000000001V763.2625C560.5600000000001 773.2725 553.0525 780.78 543.0425 780.78H282.7825000000001z M603.1025 763.2625H630.63C655.6550000000001 763.2625 675.6750000000001 743.2425000000001 675.6750000000001 718.2175V262.7625000000001C675.6750000000001 237.7375000000001 655.6550000000001 217.7175 630.63 217.7175H558.0575000000001C583.0825000000001 217.7175 603.1025000000001 237.7375000000001 603.1025000000001 262.7625000000001V763.2625z M698.1974999999999 713.2125000000001H720.7199999999999C743.2424999999998 713.2125000000001 760.7599999999999 695.695 760.7599999999999 673.1725V260.26C760.7599999999999 237.7375000000001 743.2425 220.22 720.7199999999999 220.22H658.1574999999999C680.6799999999998 220.22 698.1974999999999 237.7375 698.1974999999999 260.26V713.2125000000001z" />
    <glyph glyph-name="head-power-cables"
      unicode="&#xE038;"
      horiz-adv-x="1001" d=" M477.9775 392.8925000000001V758.2575C477.9775 783.2825 460.46 800.8000000000001 435.435 800.8000000000001H242.7425C217.7175 800.8 200.2 783.2825 200.2 758.2575V392.8925000000002C200.2 367.8675000000001 217.7175 350.3500000000002 242.7425 350.3500000000002H265.265V222.7225000000002C265.265 210.2100000000002 272.7725 200.2000000000003 287.7875 200.2000000000003C300.3 200.2000000000003 310.31 207.7075000000002 310.31 222.7225000000002V350.35H375.375V222.7225C375.375 210.21 382.8825 200.2000000000001 397.8975 200.2000000000001C410.41 200.2000000000001 420.42 207.7075000000001 420.42 222.7225V350.35H442.9425C462.9625 350.35 477.9774999999999 367.8675000000001 477.9774999999999 392.8925000000001zM778.2775 523.0225V565.565H735.735V523.0225H713.2125000000001V535.535C713.2125000000001 650.65 628.1275 728.2275 520.5200000000001 738.2375V695.6949999999999C605.605 688.1875 670.6700000000001 630.63 670.6700000000001 533.0325V520.52H650.65V525.5250000000001C650.65 603.1025 590.59 658.1575 523.0224999999999 668.1675V625.625C575.5749999999999 620.6200000000001 608.1074999999998 583.0825 608.1074999999998 518.0174999999999H585.5849999999999V457.9575000000001H590.5899999999999C578.0774999999999 435.4350000000001 553.0524999999999 420.4200000000001 523.0224999999999 415.4150000000001V372.8725000000001C570.5699999999999 380.3800000000001 613.1125 415.4150000000001 635.6349999999999 457.9575000000001H660.66C638.1374999999999 402.9025000000001 588.0875 360.3600000000002 523.0224999999999 350.35C523.0224999999999 327.8275000000001 505.5049999999999 312.8125 487.9875 307.8075H500.5C595.595 307.8075 673.1724999999999 372.8725000000001 703.2025 457.9575000000001H733.2325C710.71 360.3600000000002 625.625 285.285 523.0224999999999 285.285C500.5 285.285 480.48 290.29 457.9574999999999 292.7925V250.25C480.4799999999998 245.245 500.4999999999999 242.7425000000001 523.0224999999999 242.7425000000001C650.65 242.7425000000001 755.755 337.8375000000001 775.775 457.9575H800.8V523.0225H778.2775zM735.735 585.585H778.2775V713.2125H735.735V585.585z" />
    <glyph glyph-name="head-store-insurance"
      unicode="&#xE039;"
      horiz-adv-x="1001" d=" M410.41 553.0525L377.8775 520.52L470.4699999999999 427.9275000000001L628.1274999999999 585.585L590.5899999999999 613.1125000000001L470.4699999999999 492.9925000000001z M688.1875 372.8725L495.495 260.26L302.8025 372.8725V730.73H568.0675V770.77H257.7575V340.3400000000001L495.495 205.2050000000002L730.73 340.3400000000001V608.1075000000001H690.6899999999999zM730.7299999999999 770.77V845.845H688.1875V770.77H610.6099999999999V730.73H688.1875V655.655H730.7299999999999V730.73H805.8050000000001V770.77z" />
    <glyph glyph-name="help_v2"
      unicode="&#xE03A;"
      horiz-adv-x="1001" d=" M500.5 1001C223.6873310546875 1001 0 777.3126689453125 0 500.5S223.6873310546875 0 500.5 0S1001 223.6873310546876 1001 500.5S777.3126689453125 1001 500.5 1001zM500.5 232.0755937500001C466.94694921875 232.0755937500001 441.7821611328125 257.2403818359376 441.7821611328125 290.7934326171875S466.94694921875 349.511271484375 500.5 349.511271484375S559.2178388671875 324.3464833984375 559.2178388671875 290.7934326171875C559.2178388671875 260.0361435546875 531.2572890625 232.0755937500001 500.5 232.0755937500001zM553.625337890625 464.1511875C542.4413134765625 461.35542578125 534.0530507812499 450.170423828125 534.0530507812499 438.9863994140625V408.2291103515625H464.1511875V438.9863994140624C464.1511875 480.9277128906249 492.1117373046875 517.2765253906248 528.4615273437499 528.4615273437498C570.4028408203123 542.442291015625 592.7718671875 587.1793662109374 584.3836044921874 631.9164414062499C573.1995800781249 673.8577548828124 534.0540283203125 704.6150439453123 489.3169531249999 699.0225429687498S411.0268271484375 657.0812294921874 411.0268271484375 612.3441542968749H341.1249638671875C341.1249638671875 693.4310195312498 399.842802734375 760.5371210937499 480.92966796875 768.9253837890624C559.2197939453125 777.3136464843748 634.714158203125 726.9840703124999 651.49068359375 648.6939443359373C671.062970703125 570.4038183593748 629.1216572265624 492.1127148437499 553.62729296875 464.1521650390623z" />
    <glyph glyph-name="instagram"
      unicode="&#xE03B;"
      horiz-adv-x="1001" d=" M500.5 750.75C432.9325 750.75 422.9225 750.75 397.8975000000001 748.2475C370.37 748.2475 352.8525 743.2425000000001 337.8375000000001 735.735C320.32 730.73 305.3050000000001 723.2225 292.7925 708.2075C277.7775000000001 695.6949999999999 270.2700000000001 680.68 262.7625000000001 665.665C257.7575000000001 648.1475 252.7525000000001 630.63 252.7525000000001 603.1025C250.25 578.0775 250.25 568.0675 250.25 500.5S250.25 422.9225 252.7525 397.8974999999999C252.7525 370.37 257.7575 352.8525 265.265 337.8374999999999C272.7725000000001 320.32 280.2800000000001 307.8074999999999 295.295 292.7924999999999S322.8225000000001 270.2699999999999 340.3400000000001 262.7624999999998C355.355 257.7574999999998 375.375 252.7524999999999 400.4000000000001 250.2499999999999H500.5C568.0675 250.2499999999999 578.0775 250.2499999999999 603.1025000000001 252.7524999999999C630.63 252.7524999999999 648.1475 257.7574999999998 663.1625000000001 265.2649999999998C680.6800000000001 272.7724999999997 693.1925000000001 280.2799999999999 708.2075000000001 295.2949999999999S730.7300000000001 322.8224999999998 738.2375000000002 340.3399999999998C743.2425000000002 355.3549999999999 748.2475000000002 375.3749999999999 750.7500000000001 400.3999999999999C750.7500000000001 427.9274999999999 753.2525 435.435 753.2525 503.0024999999999S753.2525 580.5799999999999 750.7500000000001 605.6049999999998C750.7500000000001 633.1324999999999 745.7450000000001 650.6499999999999 738.2375000000002 665.6649999999998C730.7300000000002 683.1824999999999 723.2225000000002 695.6949999999998 708.2075000000001 710.7099999999998S680.6800000000002 733.2324999999998 663.1625000000001 740.7399999999999C648.1475 745.7449999999999 628.1275 750.7499999999999 603.1025000000001 753.2524999999998C578.0775 750.75 568.0675 750.75 500.5 750.75zM500.5 705.705C568.0675 705.705 575.5749999999999 705.705 600.6 703.2025C625.625 703.2025 638.1374999999999 698.1975 648.1474999999999 695.6949999999999C660.66 690.69 668.1675 685.685 675.675 675.675C683.1824999999999 668.1675 690.6899999999999 658.1575 693.1924999999999 648.1475C698.1974999999999 638.1374999999999 703.2024999999999 625.625 703.2024999999999 600.5999999999999C703.2024999999999 573.0725 705.7049999999998 565.5649999999999 705.7049999999998 500.5C705.7049999999998 432.9325 705.7049999999998 425.4250000000001 703.2024999999999 400.4C703.2024999999999 375.375 698.1974999999999 362.8625000000001 695.6949999999999 352.8525000000001C690.6899999999999 340.3400000000001 685.685 332.8325 678.1775 325.3250000000001S660.6600000000001 310.3100000000001 650.65 307.8075000000001C640.64 305.3050000000002 628.1275 300.3000000000002 603.1025000000001 300.3000000000002C575.575 300.3000000000002 568.0675 297.7975000000003 503.0025000000001 297.7975000000003S427.9275000000001 297.7975000000003 402.9025000000001 300.3000000000002C377.8775000000001 300.3000000000002 365.3650000000001 305.3050000000002 355.3550000000001 307.8075000000001C340.3400000000001 310.3100000000001 332.8325000000001 315.3150000000001 325.3250000000001 325.3250000000001C317.8175000000001 332.8325 310.3100000000001 342.8425 307.8075000000001 352.8525000000001C302.8025000000001 362.8625000000001 297.7975000000001 375.375 297.7975000000001 400.4C297.7975000000001 427.9275 295.295 435.4350000000001 295.295 500.5C295.295 568.0675 295.295 575.575 297.7975000000001 600.5999999999999C297.7975000000001 625.625 302.8025000000001 638.1374999999999 305.3050000000001 648.1475C310.3100000000001 660.66 315.3150000000001 668.1675 325.3250000000001 675.675C332.8325000000001 683.1825 342.8425000000001 690.69 352.8525000000001 693.1925C362.8625000000002 698.1975 375.3750000000001 703.2025 400.4000000000001 703.2025C425.4250000000002 705.705 432.9325000000001 705.705 500.5000000000001 705.705z M500.5 417.9175C455.455 417.9175 417.9175 455.4549999999999 417.9175 500.5S455.455 583.0825 500.5 583.0825S583.0825 545.5450000000001 583.0825 500.5S545.5450000000001 417.9175 500.5 417.9175zM500.5 628.1274999999999C430.43 628.1274999999999 372.8725 570.5699999999999 372.8725 500.5S430.43 372.8725000000001 500.5 372.8725000000001S628.1274999999999 430.4300000000001 628.1274999999999 500.5000000000001S570.5699999999999 628.1275 500.4999999999999 628.1275zM663.1625 633.1324999999999C663.1625 615.615 650.65 603.1025 633.1324999999999 603.1025S603.1025 615.615 603.1025 633.1325S615.6149999999999 663.1625000000001 633.1324999999999 663.1625000000001S663.1625 650.6500000000001 663.1625 633.1325z" />
    <glyph glyph-name="less"
      unicode="&#xE03C;"
      horiz-adv-x="1001" d=" M300.3 700.7H700.6999999999999V300.3000000000001H300.3V700.7zM500.5 437.9375A62.5625 62.5625 0 1 1 500.5312812500001 563.03121875A62.5625 62.5625 0 0 1 500.5 437.9375z" />
    <glyph glyph-name="link"
      unicode="&#xE03D;"
      horiz-adv-x="1001" d=" M300.58153125 100.1A165.41525000000001 165.41525000000001 0 0 0 182.6199375 149.1802812499999L148.89875 182.9953125000001A168.23056250000002 168.23056250000002 0 0 0 148.89875 419.9195L320.32 592.0915C351.82021875 623.71684375 393.73709375 641.17178125 438.28159375 641.17178125S524.7429687499999 623.71684375 556.2431875 592.0915L589.93309375 558.2451874999999C599.25490625 548.89209375 599.25490625 533.7519687500001 589.93309375 524.398875S565.565 515.0145 556.2431875000001 524.398875L522.5532812500002 558.2451874999999C500.0620625000002 580.83025 470.1259062500002 593.2801875 438.3128750000002 593.2801875S376.5324062500002 580.7989687500001 354.0411875000002 558.2451874999999L182.6199375000001 386.10446875A120.18256249999999 120.18256249999999 0 0 1 182.6199375000001 216.87290625L216.3098437500002 183.02659375C238.8010625000002 160.4415312499999 268.7372187500001 147.9603125 300.5815312500002 147.9603125S362.3307187500002 160.44153125 384.8219375000002 183.02659375L488.8633750000002 287.4746875C498.1851875000002 296.8590625 513.2314687500002 296.8590625 522.5532812500002 287.4746875S531.8750937500001 263.01275 522.5532812500002 253.6283749999999L418.5431250000002 149.1802812499999A165.2275625 165.2275625 0 0 0 300.58153125 100.1z M536.31703125 350.8505A178.17799999999997 178.17799999999997 0 0 0 412.4745625 399.93078125C402.68353125 409.283875 402.68353125 424.4240000000001 412.4745625 433.7770937500001S438.062625 443.1301875000001 447.8536562500001 433.7770937500001C471.471 411.19203125 502.90865625 398.7108125000001 536.31703125 398.7108125000001S601.19434375 411.1920312500002 624.8116875000001 433.7770937500001L804.8040000000001 605.9178125000001A116.17856249999998 116.17856249999998 0 0 1 804.8040000000001 775.1493750000001L769.42490625 809.05825C720.6574375 855.69859375 641.2343437500001 855.69859375 592.4981562500001 809.05825L483.2640312500001 704.578875C473.473 695.2257812500001 457.67596875 695.2257812500001 447.8849375000001 704.578875S438.0939062500001 729.07209375 447.8849375000001 738.4251875L557.08778125 842.8732812500001C625.3747500000001 908.18853125 736.5170312500001 908.18853125 804.8040000000001 842.8732812500001L840.18309375 808.9956875A162.59993750000004 162.59993750000004 0 0 0 840.18309375 572.0715L660.1907812500001 399.9307812500001A178.052875 178.052875 0 0 0 536.3170312500001 350.8505000000001z" />
    <glyph glyph-name="live-chat"
      unicode="&#xE03E;"
      horiz-adv-x="1001" d=" M705.7049999999999 748.2475000000001C728.2274999999998 748.2475000000001 745.745 730.73 745.745 708.2075V387.8875000000001C745.745 365.3650000000001 728.2275 347.8475 705.7049999999999 347.8475H417.9175C415.4149999999999 347.8475 415.4149999999999 347.8475 415.4149999999999 345.3449999999999L317.8175 265.265C292.7924999999999 245.245 255.2549999999999 262.7625 255.2549999999999 295.295V705.7049999999999C255.255 728.2275 272.7725 745.745 295.295 745.745H705.7049999999999zM695.6949999999999 700.7H305.305C302.8025 700.7 300.3 698.1975 300.3 695.695V312.8125C300.3 310.3100000000001 305.305 307.8075 307.8075 310.3100000000001L385.385 380.38C397.8975 392.8925000000001 407.9075 400.4000000000001 427.9275 400.4000000000001H695.6949999999999C698.1975 400.4000000000001 700.6999999999999 402.9025000000001 700.6999999999999 405.405V695.695C700.6999999999999 698.1975 698.1974999999999 700.7 695.6949999999999 700.7z M405.405 575.575C422.9225 575.575 435.435 560.56 435.435 545.5450000000001S422.9225 513.0125 405.405 513.0125S375.375 528.0275000000001 375.375 545.5450000000001S390.39 575.575 405.405 575.575zM505.5049999999999 575.575C523.0224999999999 575.575 535.535 560.56 535.535 545.5450000000001S520.5199999999999 515.5150000000001 505.5049999999999 515.5150000000001S475.475 528.0275000000001 475.475 545.5450000000001S490.49 575.575 505.5049999999999 575.575zM605.6049999999999 575.575C623.1225 575.575 635.6349999999999 560.56 635.6349999999999 545.5450000000001S620.6199999999999 515.5150000000001 605.6049999999999 515.5150000000001S575.5749999999999 528.0275000000001 575.5749999999999 545.5450000000001S590.59 575.575 605.6049999999999 575.575z" />
    </font>
</defs>
</svg>
